<svg viewBox="0 0 500 500" xmlns="http://www.w3.org/2000/svg">
    <style>
      @media (prefers-color-scheme: dark) {
      .a { fill: #ffffff }
      }
    </style>
<path class="a" d="M3.2959 329H52.2949L60.5347 297.469H107.996L116.235 329H165.234L113.489 170.467H55.0415L3.2959 329ZM83.8257 208.26H84.7046L99.4263 264.62H69.104L83.8257 208.26ZM244.446 331.856C293.774 331.856 324.426 300.326 324.426 249.789V249.569C324.426 199.142 293.665 167.611 244.446 167.611C195.557 167.611 164.685 199.032 164.685 249.569V249.789C164.685 300.436 195.337 331.856 244.446 331.856ZM244.446 293.844C224.89 293.844 212.146 277.145 212.146 249.789V249.569C212.146 222.213 225 205.624 244.446 205.624C264.221 205.624 276.965 222.323 276.965 249.569V249.789C276.965 276.815 264.551 293.844 244.446 293.844ZM342.554 329H410.339C458.35 329 486.694 299.337 486.694 248.58V248.36C486.694 197.713 458.35 170.467 410.339 170.467H342.554V329ZM389.136 291.976V207.491H403.748C425.94 207.491 439.233 221.773 439.233 248.36V248.58C439.233 277.804 427.039 291.976 403.748 291.976H389.136Z" fill="#000000"/>
</svg>