<svg viewBox="0 0 500 500" xmlns="http://www.w3.org/2000/svg">
    <style>
      @media (prefers-color-scheme: dark) {
      .favicon { fill: #ffffff }
      }
    </style>
<path class="favicon" fill-rule="evenodd" clip-rule="evenodd" d="M305 291C305 277.932 315.027 267.205 327.807 266.095C330.455 257.935 332.331 248.721 333.433 238.454C334.286 229.584 334.357 221.764 333.646 214.993C332.377 202.923 328.78 193.48 322.855 186.662C316.93 179.844 309.087 175.311 299.327 173.062C289.551 170.667 278.187 170.15 265.234 171.512C248.602 173.26 234.359 177.212 222.505 183.369C210.636 189.378 201.219 198.181 194.253 209.777C187.419 221.21 183.032 236.106 181.092 254.465C180.208 263.041 180.113 270.64 180.81 277.264C180.959 278.688 181.141 280.078 181.354 281.431C182.859 281.148 184.412 281 186 281C199.807 281 211 292.193 211 306C211 310.157 209.985 314.077 208.19 317.526C210.475 318.443 212.885 319.212 215.419 319.833C225.342 322.213 236.633 322.738 249.291 321.407C266.218 319.628 280.542 315.742 292.264 309.748C297.552 307.001 302.34 303.714 306.626 299.887C305.575 297.126 305 294.13 305 291ZM172.772 327.218L125.937 332.14L118.516 306.133L84.074 309.753L71.183 337.895L14 343.905L83.8368 192.809L139.254 186.985L168.115 288.533C163.713 293.039 161 299.203 161 306C161 314.95 165.703 322.801 172.772 327.218ZM352.174 164.606L341.369 268.729C349.461 272.867 355 281.287 355 291C355 297.993 352.129 304.316 347.501 308.853L404.651 302.846C422.461 300.974 436.925 296.998 448.042 290.919C459.307 284.824 467.93 276.254 473.912 265.208C479.879 254.015 483.844 240.056 485.806 223.331C486.202 220.016 486.392 216.871 486.377 213.896C486.509 210.906 486.428 208.012 486.134 205.216C484.928 193.735 481.257 184.299 475.123 176.908C469.121 169.354 461.332 163.922 451.758 160.613C442.183 157.304 431.509 156.268 419.734 157.505L352.174 164.606ZM394.862 262.802L402.81 261.967C408.698 261.348 413.551 260.094 417.37 258.204C421.337 256.299 424.421 253.073 426.622 248.526C428.969 243.964 430.593 237.468 431.493 229.04C431.92 226.019 432.091 223.397 432.006 221.173C432.053 218.787 431.976 216.638 431.775 214.724C431.14 208.689 428.972 205.048 425.269 203.8C421.698 202.39 416.233 202.071 408.873 202.845L400.925 203.68L394.862 262.802ZM271.482 267.064C267.794 271.618 262.049 274.306 254.248 275.126C247.919 275.791 243.314 275.159 240.432 273.229C237.551 271.3 235.847 267.833 235.321 262.829C235.12 260.915 235.051 258.839 235.113 256.6C235.16 254.214 235.331 251.592 235.626 248.734C236.751 238.198 239.157 230.653 242.845 226.099C246.665 221.382 252.476 218.613 260.277 217.793C266.753 217.113 271.432 217.737 274.313 219.666C277.179 221.449 278.883 224.915 279.424 230.067C279.625 231.981 279.629 234.138 279.435 236.539C279.373 238.778 279.194 241.327 278.899 244.185C277.774 254.721 275.302 262.347 271.482 267.064ZM115.35 269.634L93.713 271.908L107.418 243.012L115.35 269.634Z" fill="#000000"/>
</svg>