<svg xmlns="http://www.w3.org/2000/svg" width="345.445" height="119.659" viewBox="0 0 345.445 119.659">
  <g id="AOD" transform="translate(-2.3 -45.4)">
    <path id="Path_1" data-name="Path 1" d="M35.637,75.112h.712v-.475l-.237-.237H35.4v.237A.735.735,0,0,1,35.637,75.112Z" transform="translate(45.486 39.852)" fill="none"/>
    <path id="Path_2" data-name="Path 2" d="M38.324,78.087h0v-.712c0-.237,0-.475-.237-.475H35.475v.237c0,.237,0,.237-.237.237a1.04,1.04,0,0,0-.237.712,3.431,3.431,0,0,0,1.662.475A2,2,0,0,0,38.324,78.087Z" transform="translate(44.936 43.287)" fill="none"/>
    <path id="Path_3" data-name="Path 3" d="M47.221,79.912a7.928,7.928,0,0,1-3.561.712,14.013,14.013,0,0,1-3.324-.475,12.375,12.375,0,0,0-3.324-.475,4.629,4.629,0,0,0-1.9.237h-.475l-.237.237c0,.475.237.95.475.95a1.779,1.779,0,0,0,1.187.237h.712a7.339,7.339,0,0,0,1.9.475,8.535,8.535,0,0,0,2.612-.475,10.1,10.1,0,0,1,2.612-.475,5.9,5.9,0,0,1,1.9.237l1.187.237c.712-.237,1.425-.237,2.374-.475a2.467,2.467,0,0,0,1.9-.95,2.155,2.155,0,0,0-1.662-.712A7.737,7.737,0,0,0,47.221,79.912Z" transform="translate(44.112 46.448)" fill="none"/>
    <path id="Path_4" data-name="Path 4" d="M40.075,84.4a.511.511,0,0,0-.475.475v.237a.237.237,0,1,0,.475,0c0-.237,0-.237.237-.237C40.312,84.637,40.312,84.4,40.075,84.4Z" transform="translate(51.257 53.594)" fill="none"/>
    <path id="Path_5" data-name="Path 5" d="M68.287,54.662c.712.237,1.187.237,1.425.475l.475-.475a1.04,1.04,0,0,0,.237-.712v-.237A1.436,1.436,0,0,0,69,53a2.582,2.582,0,0,0-1.187.237q-.712.356-.712.712A1.306,1.306,0,0,0,68.287,54.662Z" transform="translate(89.048 10.444)" fill="none"/>
    <path id="Path_6" data-name="Path 6" d="M52.637,65.2c-.237,0-.237,0-.237.237s0,.475.237.475h.712c.237,0,.237,0,.237-.237C53.35,65.2,53.112,65.2,52.637,65.2Z" transform="translate(68.847 27.209)" fill="none"/>
    <path id="Path_7" data-name="Path 7" d="M38.237,69.137h.95c0-.237,0-.237-.237-.237H38v.237C38,68.9,38.237,69.137,38.237,69.137Z" transform="translate(49.059 32.294)" fill="none"/>
    <path id="Path_8" data-name="Path 8" d="M33.912,78.337c0-.237-.237-.237-.475-.237a.872.872,0,0,0-.237.712c0,.237,0,.475.237.475.475,0,.712,0,.712-.237v-.237C34.15,78.575,33.912,78.575,33.912,78.337Z" transform="translate(42.463 44.936)" fill="none"/>
    <path id="Path_9" data-name="Path 9" d="M38.2,78.375h0l.237-.237c0-.237,0-.237-.237-.237Z" transform="translate(49.334 44.661)" fill="none"/>
    <path id="Path_10" data-name="Path 10" d="M40.775,77.437c0-.237,0-.237-.237-.237l-.237.237a.237.237,0,1,0,.475,0Z" transform="translate(52.219 43.699)" fill="none"/>
    <path id="Path_11" data-name="Path 11" d="M37.912,76.787c.475,0,.712.237,1.187.237h1.425c.475,0,.712-.237.712-.95v-.237c-.475,0-.712-.237-.95-.237h-.95a5.348,5.348,0,0,0-1.662.237v.237c0,.237,0,.237-.237.237s-.237,0-.237.237A1.837,1.837,0,0,1,37.912,76.787Z" transform="translate(47.959 41.501)" fill="none"/>
    <path id="Path_12" data-name="Path 12" d="M33.412,70.9a.872.872,0,0,0-.712.237l.712.237a1.172,1.172,0,0,0,.712-.237C33.887,71.137,33.65,70.9,33.412,70.9Z" transform="translate(41.776 35.042)" fill="none"/>
    <path id="Path_13" data-name="Path 13" d="M37.937,72.15a1.078,1.078,0,0,1,1.187,0c.475.237.712,0,.712-.475a1.234,1.234,0,0,0-.95-.475c-.712,0-1.187.237-1.187.712v.237C37.937,71.675,37.937,71.912,37.937,72.15Z" transform="translate(48.647 35.454)" fill="none"/>
    <path id="Path_14" data-name="Path 14" d="M82.3,54.9c.475-.237.712-.237,1.187-.475,0-.475-.237-.95-.712-.95S81.825,53,81.35,53a.872.872,0,0,0-.712.237c-.237,0-.237.475-.237.712a2.169,2.169,0,0,0,.712,1.187C81.587,55.137,81.825,54.9,82.3,54.9Z" transform="translate(107.325 10.444)" fill="none"/>
    <path id="Path_15" data-name="Path 15" d="M86.012,60.45c.237,0,.475-.237.712-.237v-.237c0-.237,0-.475-.237-.475h-.712c0,.237-.237.237-.237.475a.829.829,0,0,0-.237.475.233.233,0,0,0,.237.237C85.775,60.687,86.012,60.687,86.012,60.45Z" transform="translate(114.058 19.376)" fill="none"/>
    <path id="Path_16" data-name="Path 16" d="M58.012,70.2a.511.511,0,0,1-.475.475c-.237,0-.237.237-.237.475s0,.237.237.237h.712a1.848,1.848,0,0,0,1.662-.712c0-.237-.475-.475-.95-.237A1.427,1.427,0,0,1,58.012,70.2Z" transform="translate(75.581 34.08)" fill="none"/>
    <path id="Path_17" data-name="Path 17" d="M62.575,54.1c-.237,0-.475,0-.475.237s0,.475.237.475c.475,0,.712,0,.95-.237C63.287,54.337,63.05,54.1,62.575,54.1Z" transform="translate(82.177 11.955)" fill="none"/>
    <path id="Path_18" data-name="Path 18" d="M77.364,54.425a3.048,3.048,0,0,0,2.374-.95c0-.237-.475-.475-.95-.475a3.011,3.011,0,0,0-1.425.237q-.712.356-.712.712C76.414,54.187,76.652,54.425,77.364,54.425Z" transform="translate(102.051 10.444)" fill="none"/>
    <path id="Path_19" data-name="Path 19" d="M73.1,54.425a1.779,1.779,0,0,0,1.187-.237c0-.475-.237-.712-.712-.95-.475,0-.95-.237-1.425-.237-.712,0-.95.237-.95.712S71.675,54.425,73.1,54.425Z" transform="translate(94.682 10.444)" fill="none"/>
    <path id="Path_20" data-name="Path 20" d="M86.712,54.712a.233.233,0,0,1,.237.237c.712,0,.95-.237.95-.475v-.237h-.95c0-.237-.237-.237-.712-.237L86,54.237C86.475,54.475,86.475,54.712,86.712,54.712Z" transform="translate(115.02 11.818)" fill="none"/>
    <path id="Path_21" data-name="Path 21" d="M62.25,56.6H61.3a.63.63,0,0,0,.712.712H63.2a1.779,1.779,0,0,0,1.187-.237,1.8,1.8,0,0,0-.95-.475Z" transform="translate(81.078 15.391)" fill="none"/>
    <path id="Path_22" data-name="Path 22" d="M59.3,79.975h0l-.475-.237c-.237,0-.237,0-.237-.237-.237,0-.475.237-.712.237a.511.511,0,0,0-.475.475c.237,0,.475.237.712.475a.872.872,0,0,0,.712.237.233.233,0,0,0,.237-.237c.237-.237.475-.475.475-.237a.233.233,0,0,0-.237-.237Z" transform="translate(75.718 46.86)" fill="none"/>
    <path id="Path_23" data-name="Path 23" d="M58.15,68.987h.712a.872.872,0,0,1,.712-.237c.237,0,.237,0,.237-.237v-.237a2.007,2.007,0,0,0-1.425-.475A1.122,1.122,0,0,0,57.2,68.987a.511.511,0,0,0,.475.475C57.912,68.987,58.15,68.987,58.15,68.987Z" transform="translate(75.443 30.782)" fill="none"/>
    <path id="Path_24" data-name="Path 24" d="M60.5,81.112h.712a3.432,3.432,0,0,0,1.662-.475c-.237-.237-.475-.237-.95-.237A1.436,1.436,0,0,0,60.5,81.112Z" transform="translate(79.978 48.097)" fill="none"/>
    <path id="Path_25" data-name="Path 25" d="M59.537,76.9h0l-.475.237h-.95c-.475,0-.712.237-.712.475,0,.475.237.712.475.712s.475,0,.475.475h1.425c.475,0,.712-.237.712-.475a.872.872,0,0,0-.237-.712Q59.537,77.256,59.537,76.9Z" transform="translate(75.718 43.287)" fill="none"/>
    <path id="Path_26" data-name="Path 26" d="M42.8,83.9v.712a.511.511,0,0,0,.475.475c.237,0,.475.237.712.237.475,0,.712-.237,1.187-.475A3.165,3.165,0,0,0,42.8,83.9Z" transform="translate(55.655 52.906)" fill="none"/>
    <path id="Path_27" data-name="Path 27" d="M19.949,73.337a.872.872,0,0,1-.712-.237,10.283,10.283,0,0,1-1.187.237c-.475,0-.712.237-.95.712a3.545,3.545,0,0,0,2.374.712h2.612a4.131,4.131,0,0,0-1.662-.712C20.424,73.337,20.186,73.1,19.949,73.337Z" transform="translate(20.338 38.065)" fill="none"/>
    <path id="Path_28" data-name="Path 28" d="M33.174,55h0c.475,0,.712,0,.712-.237s.237-.475.475-.712c0-.712,0-.95-.237-.95h-.712a2.007,2.007,0,0,0-1.425.475c-.237.475-.712.712-1.187,1.187,0,.475.475.475,1.187.475S33.174,55.237,33.174,55Z" transform="translate(39.165 10.581)" fill="none"/>
    <path id="Path_29" data-name="Path 29" d="M18.4,77.6a16.354,16.354,0,0,0-1.9.712c0,.237.237.475.95.95a6.932,6.932,0,0,0,2.137.475,4.629,4.629,0,0,0,1.9-.237,1.06,1.06,0,0,0,.95-.712v-.237a2.159,2.159,0,0,0-1.9-.95A3.294,3.294,0,0,0,18.4,77.6Z" transform="translate(19.514 44.009)" fill="none"/>
    <path id="Path_30" data-name="Path 30" d="M30.912,57.425h1.425q1.425,0,1.425-.712A4.581,4.581,0,0,0,31.387,56a.872.872,0,0,0-.712.237c-.237,0-.475.475-.475.712a.233.233,0,0,0,.237.237h.475Z" transform="translate(38.34 14.566)" fill="none"/>
    <path id="Path_31" data-name="Path 31" d="M31.737,58.337c-.237,0-.237.237-.237.475a.511.511,0,0,0,.475.475H33.4c.237,0,.475-.237,1.187-.475A1.306,1.306,0,0,0,33.4,58.1,4.635,4.635,0,0,1,31.737,58.337Z" transform="translate(40.126 17.452)" fill="none"/>
    <path id="Path_32" data-name="Path 32" d="M19.612,84.175a.233.233,0,0,0-.237-.237H18.9a.233.233,0,0,1-.237-.237h-.95c-.237,0-.475.237-.712.475a.829.829,0,0,1,.475.237l.475.475h1.425c.237,0,.475,0,.475-.237v-.237C19.612,84.412,19.612,84.412,19.612,84.175Z" transform="translate(20.201 52.632)" fill="none"/>
    <path id="Path_33" data-name="Path 33" d="M16.7,86.537h.237V86.3l-.237.237Z" transform="translate(19.788 56.205)" fill="none"/>
    <path id="Path_34" data-name="Path 34" d="M10.075,82.9h0L9.6,83.14a.233.233,0,0,0,.237.237h.712V83.14a.233.233,0,0,0-.237-.237C10.312,82.666,10.075,82.666,10.075,82.9Z" transform="translate(10.032 51.292)" fill="none"/>
    <path id="Path_35" data-name="Path 35" d="M29.587,56.037h1.425c.237-.237.475-.475.475-.712s.237-.475.475-.95c0-.237-.237-.237-.475-.237s-.237,0-.475-.237h-.95a1.233,1.233,0,0,0-.95.475c0,.475-.237.712-.712.95A1.1,1.1,0,0,0,29.587,56.037Z" transform="translate(35.866 11.681)" fill="none"/>
    <path id="Path_36" data-name="Path 36" d="M11.312,86.7c-.475,0-.712.237-.712.475a1.306,1.306,0,0,0,.712,1.187c.475.237.712.475.95.475.712,0,1.187-.237,1.187-.712-.237-.237-.712-.475-.95-.712C12.262,86.7,11.787,86.7,11.312,86.7Z" transform="translate(11.406 56.754)" fill="none"/>
    <path id="Path_37" data-name="Path 37" d="M16.425,83.8h-.95c0,.237,0,.237-.237.237s-.237,0-.237.237a.233.233,0,0,0,.237.237A.233.233,0,0,1,15,84.75c0,.237,0,.237.237.237L15,85.225c0,.237,0,.237.237.237a3.177,3.177,0,0,0,1.187-.237,1.1,1.1,0,0,0,.712-1.187C17.137,83.8,16.9,83.8,16.425,83.8Z" transform="translate(17.452 52.769)" fill="none"/>
    <path id="Path_38" data-name="Path 38" d="M21.685,80.237A.872.872,0,0,1,20.972,80a11.559,11.559,0,0,1-2.849.237A11.559,11.559,0,0,1,15.274,80H13.612c-.475,0-.712,0-.712.237a1.272,1.272,0,0,0,.712.95,16.362,16.362,0,0,0,1.9.712,6.932,6.932,0,0,0,2.137.475,5.347,5.347,0,0,0,1.662.237,2.052,2.052,0,0,0,1.425-.712,2.052,2.052,0,0,0,.712-1.425C21.922,80.475,21.922,80.237,21.685,80.237Z" transform="translate(14.566 47.547)" fill="none"/>
    <path id="Path_39" data-name="Path 39" d="M23.074,72.975c0-.237-.237-.475-.712-.475h-.95a.511.511,0,0,1-.475.475c-.237,0-.237.237-.237.475l.237.237a4.628,4.628,0,0,0,1.9-.237v-.475Z" transform="translate(25.285 37.241)" fill="none"/>
    <path id="Path_40" data-name="Path 40" d="M26.612,80.5c-.475,0-.712.237-.712.475a.233.233,0,0,0,.237.237,1.4,1.4,0,0,0,1.187-.475A.872.872,0,0,0,26.612,80.5Z" transform="translate(32.431 48.234)" fill="none"/>
    <path id="Path_41" data-name="Path 41" d="M22.65,78.5h-.475c-.475,0-.475.237-.475.475a.233.233,0,0,0,.237.237l.237.237v.237h.95c.237,0,.237,0,.237-.237a.735.735,0,0,1,.237-.475C23.125,78.737,22.887,78.5,22.65,78.5Z" transform="translate(26.659 45.486)" fill="none"/>
    <path id="Path_42" data-name="Path 42" d="M35.012,62.637c0-.237-.475-.237-.712-.237H32.875c0,.237,0,.237-.237.237a.233.233,0,0,0-.237.237v.237h1.425C34.537,62.875,34.774,62.637,35.012,62.637Z" transform="translate(41.363 23.361)" fill="none"/>
    <path id="Path_43" data-name="Path 43" d="M44.517,96.9a1.623,1.623,0,0,0,1.662-1.662c0-.475-.237-1.425-.475-2.849-.475-1.425-.712-2.612-1.187-4.274-.475-1.425-.95-2.849-1.425-4.036s-.95-2.137-1.187-2.612a5.94,5.94,0,0,0-.712-3.086,11.754,11.754,0,0,1-.95-3.086,5.451,5.451,0,0,1-.95-3.324,3.238,3.238,0,0,0-1.187-2.849,6.573,6.573,0,0,1-.237-2.137,2.007,2.007,0,0,1,.475-1.425,3.278,3.278,0,0,1,.95-.712,1.8,1.8,0,0,1,.95-.475,1.234,1.234,0,0,0,.475-.95,2.007,2.007,0,0,0-1.425.475c-.475.237-.712.475-1.187.712a1.57,1.57,0,0,1-1.425-1.662,8.9,8.9,0,0,0-.237-2.612c-.237-.237-.475-.237-1.187-.237a2.779,2.779,0,0,0-2.612,1.187,8.433,8.433,0,0,0-.95,2.137V63.9a.872.872,0,0,1-.237.712c0,.237-.237.475-.237.712a4.029,4.029,0,0,1-.95,3.086,3.57,3.57,0,0,0-.95,2.612V73.4a4.967,4.967,0,0,1-.95,1.425,11.574,11.574,0,0,0-.712,1.662v.712a5.063,5.063,0,0,1-.712,2.849,7.427,7.427,0,0,0-1.187,2.374v.712a5.063,5.063,0,0,1-.712,2.849,8.776,8.776,0,0,0-1.187,2.612,4.4,4.4,0,0,0-.475,1.662c-.237.712-.237,1.425-.475,2.137s-.475,1.662-.712,2.374a1.792,1.792,0,0,0,.95,1.662,4.031,4.031,0,0,1,1.425,1.425c.475,0,.95-.237,1.425-.237h1.425a38.97,38.97,0,0,1,5.461.475,20.366,20.366,0,0,0,5.461.475h1.662a4.04,4.04,0,0,0,1.662-.237,5.191,5.191,0,0,1,1.187-.712A8.619,8.619,0,0,1,44.517,96.9Z" transform="translate(27.346 20.201)" fill="none"/>
    <path id="Path_44" data-name="Path 44" d="M27.874,57.6a11.575,11.575,0,0,0-1.662.712c-.475.237-.712.712-.712,1.9h.712a8.435,8.435,0,0,0,2.374-.475,7.024,7.024,0,0,1,2.374-.475,2.767,2.767,0,0,1,1.662.475c.237.237.475.712.712.95s.237.712.475.95A1.814,1.814,0,0,0,35,62.111a2.581,2.581,0,0,0,1.187-.237c.475,0,.712-.237.712-.475,0-.95-.475-1.662-1.425-1.662a4.474,4.474,0,0,1-2.137-.95c-.237-.475-.475-.95-1.187-.95a4.04,4.04,0,0,0-1.662-.237H27.874Z" transform="translate(31.881 16.765)" fill="none"/>
    <path id="Path_45" data-name="Path 45" d="M33.037,79.5c-.237,0-.712.237-.95.237H31.85c-.237,0-.475.237-.712.237s-.237.237-.237.475a4.7,4.7,0,0,0,3.324,1.187.63.63,0,0,0,.712-.712V79.74a.872.872,0,0,0-.712-.237C33.512,79.266,33.274,79.266,33.037,79.5Z" transform="translate(39.302 46.62)" fill="none"/>
    <path id="Path_46" data-name="Path 46" d="M21.987,71.087c.237-.237.475-.237.712-.475v-.475c0-.237,0-.237-.237-.237H21.275c0,.237,0,.237-.237.475-.237,0-.237.237-.237.475s.237.475.712.475A.829.829,0,0,1,21.987,71.087Z" transform="translate(25.423 33.668)" fill="none"/>
    <path id="Path_47" data-name="Path 47" d="M21.887,64.05h1.187c0-.475,0-.712-.237-.712H22.6a1.8,1.8,0,0,0-.95-.237c-.475,0-.712,0-.95.237A1.1,1.1,0,0,0,21.887,64.05Z" transform="translate(25.285 24.323)" fill="none"/>
    <path id="Path_48" data-name="Path 48" d="M26.212,54.025H27.4c.712,0,1.187-.237,1.187-.712a2.052,2.052,0,0,0-1.425-.712.872.872,0,0,0-.712.237c-.237,0-.712.237-.95.237,0,.237,0,.475.237.475C25.737,53.787,25.975,53.787,26.212,54.025Z" transform="translate(31.881 9.894)" fill="none"/>
    <path id="Path_49" data-name="Path 49" d="M24.375,57.187h.475a2.159,2.159,0,0,0,1.9-.95c0-.237-.237-.237-.475-.237H24.85a.511.511,0,0,1-.475.475c-.475,0-.475.237-.475.712C24.137,56.95,24.137,57.187,24.375,57.187Z" transform="translate(29.683 14.566)" fill="none"/>
    <path id="Path_50" data-name="Path 50" d="M21.412,61.962c.475,0,.712.237,1.187.475.237-.237.475-.237.712-.475a.511.511,0,0,0,.475-.475V61.25c-.237-.237-.475-.475-.712-.475a4.011,4.011,0,0,1-1.187-.475.872.872,0,0,1-.712.237c-.237,0-.475,0-.475.237C20.937,61.725,21.175,61.962,21.412,61.962Z" transform="translate(25.285 20.475)" fill="none"/>
    <path id="Path_51" data-name="Path 51" d="M24.5,60.037c0,.475,0,.712.237.95.237,0,.475,0,.475-.237.237-.237.237-.475.475-.712,0-.237-.237-.237-.712-.237C24.737,59.8,24.5,59.8,24.5,60.037Z" transform="translate(30.507 19.788)" fill="none"/>
    <path id="Path_52" data-name="Path 52" d="M133.05,86.3h-.95a.63.63,0,0,0,.712.712l.237-.237a4179.591,4179.591,0,0,1,.475-.475C133.524,86.537,133.524,86.3,133.05,86.3Z" transform="translate(178.371 56.205)" fill="none"/>
    <path id="Path_53" data-name="Path 53" d="M117.224,82.4a4.635,4.635,0,0,0-1.662.237,4.4,4.4,0,0,1-1.662.475l1.424.712a4.473,4.473,0,0,0,1.9.475,1.779,1.779,0,0,0,1.187-.237h.237a.233.233,0,0,0,.237-.237V83.35A1.792,1.792,0,0,0,117.224,82.4Z" transform="translate(153.36 50.845)" fill="none"/>
    <path id="Path_54" data-name="Path 54" d="M117.923,86.637a.735.735,0,0,1-.475-.237,12.25,12.25,0,0,0-2.612.475,3.02,3.02,0,0,0-2.137,1.662c0,.475.237.475.475.475a1.427,1.427,0,0,1,.95.237c.712-.237,1.425-.237,2.374-.475q1.781,0,1.425-2.137Z" transform="translate(151.711 56.342)" fill="none"/>
    <path id="Path_55" data-name="Path 55" d="M111.137,57.3a.735.735,0,0,0-.237.475c0,.237.475.475,1.187.712a5.9,5.9,0,0,0,1.9.237c.712,0,1.187,0,1.424-.237a1.792,1.792,0,0,0-1.662-.95A10.647,10.647,0,0,0,111.137,57.3Z" transform="translate(149.238 16.353)" fill="none"/>
    <path id="Path_56" data-name="Path 56" d="M111.1,82.8a.872.872,0,0,0,.237.712.511.511,0,0,1,.475.475A2.14,2.14,0,0,1,113,83.75c.475,0,.712,0,.712-.237a4.581,4.581,0,0,0-2.374-.712Z" transform="translate(149.512 51.395)" fill="none"/>
    <path id="Path_57" data-name="Path 57" d="M124.774,87.337c-.712,0-.95,0-1.187-.237,0,.237-.237.237-.475.237h-.475a.233.233,0,0,0-.237.237c0,.237.237.475.95.712a3.375,3.375,0,0,0,1.425.475,1.8,1.8,0,0,0,.95-.237v-.237A.87.87,0,0,0,124.774,87.337Z" transform="translate(165.041 57.304)" fill="none"/>
    <path id="Path_58" data-name="Path 58" d="M118.186,55.187c-.237,0-.237,0-.237-.237a5.19,5.19,0,0,1-1.187-.712A2.14,2.14,0,0,0,115.575,54c-.237,0-.475,0-.475.237a1.717,1.717,0,0,0,.95,1.425,3.156,3.156,0,0,0,1.662.712c.712,0,1.187-.237,1.187-.95C118.424,55.187,118.424,55.187,118.186,55.187Z" transform="translate(155.009 11.818)" fill="none"/>
    <path id="Path_59" data-name="Path 59" d="M120.124,87.237A2.14,2.14,0,0,1,118.937,87c-.237.237-.712.237-.95.475-.475,0-.712.237-1.187.475a1.779,1.779,0,0,0,.237,1.187h1.9a1.813,1.813,0,0,0,1.187-.475l.712-.712C120.836,87.237,120.361,87.237,120.124,87.237Z" transform="translate(157.345 57.166)" fill="none"/>
    <path id="Path_60" data-name="Path 60" d="M110.862,84.037a.829.829,0,0,0-.475-.237H109.2v.237c0,.237.237.475.712.95s.712.475.95.475a.735.735,0,0,0,.475-.237c0-.237-.237-.475,0-.712A.511.511,0,0,0,110.862,84.037Z" transform="translate(146.901 52.769)" fill="none"/>
    <path id="Path_61" data-name="Path 61" d="M108.2,86.675c0,.237.237.237.712.237l.237-.237-.475-.475C108.2,86.437,108.2,86.437,108.2,86.675Z" transform="translate(145.527 56.067)" fill="none"/>
    <path id="Path_62" data-name="Path 62" d="M110.187,54.062c.712,0,1.187-.237,1.187-.475a3.277,3.277,0,0,0-.95-.712c-.475-.237-.712-.475-.95-.475s-.237,0-.237.237,0,.237-.237.475C109,53.35,109.475,53.587,110.187,54.062Z" transform="translate(146.627 9.619)" fill="none"/>
    <path id="Path_63" data-name="Path 63" d="M111.475,87.6c-.237,0-.475,0-.475.237a1.779,1.779,0,0,0,.237,1.187c.237,0,.475-.237.712,0,.237,0,.475,0,.475-.237s-.237-.475-.475-.712C111.95,87.6,111.712,87.6,111.475,87.6Z" transform="translate(149.375 57.991)" fill="none"/>
    <path id="Path_64" data-name="Path 64" d="M117.01,80.987c0-.475-.237-.712-.475-.712s-.475-.237-.712-.475a2.767,2.767,0,0,1-1.662.475,8.436,8.436,0,0,0-2.374.475c-.712.237-1.425.237-2.137.475s-.95.475-.95.712c0,.475.237.712.475.712a.872.872,0,0,1,.712.237,11.578,11.578,0,0,1,1.662-.712c.712,0,1.424-.237,1.9-.237.712,0,1.187-.237,1.9-.237A1.848,1.848,0,0,0,117.01,80.987Z" transform="translate(146.214 47.272)" fill="none"/>
    <path id="Path_65" data-name="Path 65" d="M112.25,85.2l-.475.237c-.475.237-.475.237-.475.475s0,.237.237.237c.712,0,1.187-.237,1.187-.712a.735.735,0,0,1-.475-.237Z" transform="translate(149.787 54.693)" fill="none"/>
    <path id="Path_66" data-name="Path 66" d="M141.7,75.475a.63.63,0,0,0,.712.712c.475,0,.712.237.95.237a1.1,1.1,0,0,0,1.187-.712c-.237-.475-.95-.712-1.9-.712A1.233,1.233,0,0,0,141.7,75.475Z" transform="translate(191.563 40.676)" fill="none"/>
    <path id="Path_67" data-name="Path 67" d="M137.25,71.5h.95c.237-.237.475-.237.712-.475.237,0,.475-.237.475-.712a.511.511,0,0,1-.475-.475.872.872,0,0,0-.712-.237,4.011,4.011,0,0,0-1.187.475c-.475.237-.712.475-.712.95a.511.511,0,0,0,.475.475C137.012,71.737,137.012,71.737,137.25,71.5Z" transform="translate(184.142 33.256)" fill="none"/>
    <path id="Path_68" data-name="Path 68" d="M138.8,72.45h.95a.63.63,0,0,0,.712-.712c0-.237-.237-.237-.712-.237C139.037,71.737,138.8,71.975,138.8,72.45Z" transform="translate(187.578 35.866)" fill="none"/>
    <path id="Path_69" data-name="Path 69" d="M138.874,72.875h0l-.237-.475h-1.425c-.475,0-.712.237-.712.475,0,.475,0,.712.237.95h1.425C138.637,73.587,138.874,73.35,138.874,72.875Z" transform="translate(184.417 37.103)" fill="none"/>
    <path id="Path_70" data-name="Path 70" d="M138.35,78.5l-.475.237c-.475,0-.475.237-.475.475,0,.475.237.712.475.712h.712a.63.63,0,0,0,.712-.712c-.237-.237-.237-.475-.475-.475C138.587,78.5,138.587,78.5,138.35,78.5Z" transform="translate(185.654 45.486)" fill="none"/>
    <path id="Path_71" data-name="Path 71" d="M126.912,86.7c-.475,0-.712.237-.712.475a1.306,1.306,0,0,0,.712,1.187,4.012,4.012,0,0,0,1.187.475c.712,0,1.187-.237,1.187-.712-.237-.237-.712-.475-.95-.712A2.029,2.029,0,0,0,126.912,86.7Z" transform="translate(170.263 56.754)" fill="none"/>
    <path id="Path_72" data-name="Path 72" d="M109.954,64.057h0c-.237.237,0,.237.475.237,0-.237,0-.475-.475-.237Z" transform="translate(147.809 25.503)" fill="none"/>
    <path id="Path_73" data-name="Path 73" d="M153.563,94.488a1.04,1.04,0,0,0,.237-.712,2.14,2.14,0,0,0-.237-1.187,1.427,1.427,0,0,1-.237-.95.233.233,0,0,0,.237-.237v-.475a3.83,3.83,0,0,0,.712-2.137,12.252,12.252,0,0,0-.475-2.612,5.112,5.112,0,0,1-.475-2.612,1.428,1.428,0,0,1,.237-.95c0-.475.237-.712.237-.95a3.785,3.785,0,0,0-.95-2.849,5.938,5.938,0,0,1-.95-3.086v-.475c-.475-.237-.712-.475-.712-.95s-.237-.95-.237-1.425a10.282,10.282,0,0,0-.237-1.187,1.854,1.854,0,0,0-.95-.95c-.475-.475-.712-.95-1.187-1.425a4.967,4.967,0,0,1-.95-1.425,33.976,33.976,0,0,0-3.561-2.612L140.5,63.148a15.2,15.2,0,0,0-2.612-1.425c-.712-.475-1.187-.475-1.187-.712a11.5,11.5,0,0,1-4.274-.712,1.436,1.436,0,0,1-1.425-.712,1.848,1.848,0,0,0-1.662-.712,7.339,7.339,0,0,1-1.9.475,8.435,8.435,0,0,1-2.374-.475A8.436,8.436,0,0,0,122.7,58.4a7.738,7.738,0,0,0-2.374.712,2.567,2.567,0,0,0-1.662,2.612,5.063,5.063,0,0,1,.712,2.849,7.311,7.311,0,0,1-.712,3.086,3.829,3.829,0,0,1,.712,2.137v2.612a1.813,1.813,0,0,1-.475,1.187,3.432,3.432,0,0,0-.475,1.662,25.8,25.8,0,0,0,.237,4.274c0,1.425.237,2.849.237,4.274a6.574,6.574,0,0,1-.237,2.137c0,.712-.237,1.187-.237,1.9a4.635,4.635,0,0,0,.237,1.662,4.041,4.041,0,0,1,.237,1.662,4.635,4.635,0,0,1-.237,1.662,4.04,4.04,0,0,0-.237,1.662,8.077,8.077,0,0,0,.237,2.374,8.9,8.9,0,0,1,.237,2.612,2.9,2.9,0,0,1-.712,2.137,3.151,3.151,0,0,0-.712,2.374v3.324a4.629,4.629,0,0,1-.237,1.9,5.227,5.227,0,0,0-.237,1.9,2.493,2.493,0,0,1,1.187,2.137,4.011,4.011,0,0,0,.712,2.374,2.052,2.052,0,0,0,1.425.712,4.04,4.04,0,0,1,1.662.237,12.783,12.783,0,0,1,1.9-.237h1.424a1.779,1.779,0,0,0,1.187-.237,10.283,10.283,0,0,1,1.187-.237,2.14,2.14,0,0,1,1.187.237c.237,0,.712.237.95.237a1.306,1.306,0,0,0,1.187-.712,29.529,29.529,0,0,1,3.8-.95,8.072,8.072,0,0,0,3.561-1.662,12.407,12.407,0,0,1,3.561-1.662,8.561,8.561,0,0,0,3.561-1.9,8.377,8.377,0,0,1,1.9-3.086A15.508,15.508,0,0,0,150,103.51a4.474,4.474,0,0,0,.95-2.137,3.009,3.009,0,0,1,.95-2.137,3.681,3.681,0,0,0,.475-2.849C152.138,95.2,152.85,94.963,153.563,94.488Z" transform="translate(157.62 17.865)" fill="none"/>
    <path id="Path_74" data-name="Path 74" d="M134.187,83.9H133c0,.237,0,.475.237.475a.511.511,0,0,1,.475.475h.95a.872.872,0,0,0,.712-.237A1.1,1.1,0,0,0,134.187,83.9Z" transform="translate(179.607 52.906)" fill="none"/>
    <path id="Path_75" data-name="Path 75" d="M137.811,59.737h-.95c-.237,0-.475,0-.475-.237a1.814,1.814,0,0,1-1.187.475c-.475,0-1.187,0-1.425.237h-.237c-.237,0-.237.237-.237.475v.237h.475a8.906,8.906,0,0,0,2.374-.237,7.545,7.545,0,0,0,2.137-.712v-.237C138.048,59.975,138.048,59.737,137.811,59.737Z" transform="translate(180.02 19.376)" fill="none"/>
    <path id="Path_76" data-name="Path 76" d="M138.1,64.562a1.838,1.838,0,0,0,.712-.237.511.511,0,0,0,.475-.475v-.237c-.237,0-.237,0-.237-.237a.233.233,0,0,0-.237-.237h-.475a.233.233,0,0,1-.237-.237h-1.187c-.475,0-.712.237-.712.475a3.277,3.277,0,0,1,.95.712C137.15,64.562,137.625,64.562,138.1,64.562Z" transform="translate(184.005 24.048)" fill="none"/>
    <path id="Path_77" data-name="Path 77" d="M137.212,62.2H138.4c.475,0,.712-.237.712-.475a.233.233,0,0,1-.237-.237V61.25a1.3,1.3,0,0,0-1.425-.95c-.712,0-.95.237-.95.712C136.5,61.962,136.737,62.2,137.212,62.2Z" transform="translate(184.417 20.475)" fill="none"/>
    <path id="Path_78" data-name="Path 78" d="M92.637,79.5a3.177,3.177,0,0,0-1.187.237c-.475.237-.95.237-.95.475a.63.63,0,0,0,.712.712h.95l.475-.475a.829.829,0,0,0,.237-.475v-.237A.233.233,0,0,0,92.637,79.5Z" transform="translate(121.204 46.86)" fill="none"/>
    <path id="Path_79" data-name="Path 79" d="M91.587,71.15h1.187v-.475c0-.237,0-.237-.237-.237H92.3c-.237,0-.475-.237-.95-.237s-.712,0-.95.237A1.306,1.306,0,0,0,91.587,71.15Z" transform="translate(121.067 34.08)" fill="none"/>
    <path id="Path_80" data-name="Path 80" d="M64.462,61.062c.237,0,.475,0,.475-.237V60.35c0-.237-.237-.237-.475-.475-.237,0-.237-.237-.475-.475-.712,0-1.187.237-1.187.712,0,.237,0,.475.237.475s.475.237.712.475h.712Z" transform="translate(83.139 19.239)" fill="none"/>
    <path id="Path_81" data-name="Path 81" d="M92.025,69.262h.712c.237,0,.475-.237.475-.712v-.237c0-.237-.475-.237-.95-.475a10.282,10.282,0,0,1-1.187-.237c-.237,0-.475.237-.475.712A1.3,1.3,0,0,0,92.025,69.262Z" transform="translate(121.341 30.507)" fill="none"/>
    <path id="Path_82" data-name="Path 82" d="M89.262,80.637c-.237,0-.237,0-.237-.237h-.95c-.237,0-.475,0-.475.237a2.007,2.007,0,0,0,1.425.475h.95C89.737,80.637,89.5,80.637,89.262,80.637Z" transform="translate(117.219 48.097)" fill="none"/>
    <path id="Path_83" data-name="Path 83" d="M91.15,78.425a4.581,4.581,0,0,0,2.374-.712c0-.475-.475-.712-1.187-.712a3.011,3.011,0,0,0-1.425.237c-.475.237-.712.475-.712.95C90.437,78.187,90.675,78.425,91.15,78.425Z" transform="translate(120.792 43.425)" fill="none"/>
    <path id="Path_84" data-name="Path 84" d="M89.249,56.837c0-.237,0-.237-.237-.237a4.635,4.635,0,0,0-1.662.237c-.712.237-.95.475-.95.712s0,.237.237.237h.475A2.14,2.14,0,0,0,88.3,57.55c.237-.237.712-.237,1.187-.475v-.237Z" transform="translate(115.57 15.391)" fill="none"/>
    <path id="Path_85" data-name="Path 85" d="M97.762,65.675c0-.475-.237-.475-.475-.237s-.475.237-.95-.237a1.779,1.779,0,0,0-.237,1.187h.237Z" transform="translate(128.9 27.209)" fill="none"/>
    <path id="Path_86" data-name="Path 86" d="M69.675,89.8c0,.237,0,.237-.237.237a.233.233,0,0,0-.237.237v.237h.95c.237,0,.237,0,.237-.237-.237,0-.237,0-.475-.237A.233.233,0,0,0,69.675,89.8Z" transform="translate(91.934 61.014)" fill="none"/>
    <path id="Path_87" data-name="Path 87" d="M80.05,89.937c-.237,0-.475,0-.475-.237,0,.237,0,.237-.237.475a.829.829,0,0,0-.237.475h.95c.237,0,.475-.237.712-.475a.829.829,0,0,0-.475-.237Z" transform="translate(105.538 60.877)" fill="none"/>
    <path id="Path_88" data-name="Path 88" d="M85.2,87.7a.63.63,0,0,0,.712.712.511.511,0,0,0,.475-.475.829.829,0,0,0-.475-.237H85.2Z" transform="translate(113.921 58.128)" fill="none"/>
    <path id="Path_89" data-name="Path 89" d="M117.944,88.877a3.011,3.011,0,0,1,.237-1.425,3.011,3.011,0,0,0,.237-1.425,23.086,23.086,0,0,0-1.187-6.41,27.783,27.783,0,0,0-2.612-5.935,12.04,12.04,0,0,0-2.137-3.8,12.041,12.041,0,0,1-2.137-3.8,6.99,6.99,0,0,0-3.8-2.374,2.432,2.432,0,0,0-1.187-1.425,4.966,4.966,0,0,1-1.425-.95,4.967,4.967,0,0,1-1.425-.95,7.528,7.528,0,0,1-1.187-1.425,11.754,11.754,0,0,1-3.086-.95,9.259,9.259,0,0,0-7.123,0,10.283,10.283,0,0,1-1.187.237,8.435,8.435,0,0,1-2.374-.475,6.933,6.933,0,0,0-2.137-.475,11.656,11.656,0,0,0-2.849.712,32.719,32.719,0,0,0-3.8,1.425,6.482,6.482,0,0,1-2.849,2.137,36.514,36.514,0,0,1-2.849,3.086l-2.849,2.849a17.928,17.928,0,0,0-2.612,3.324,35.716,35.716,0,0,0-2.137,4.274c-.475,1.662-.95,3.324-1.425,4.748a18.493,18.493,0,0,0-.95,4.986,3.52,3.52,0,0,0,.237,1.662,2.14,2.14,0,0,1,.237,1.187,3.011,3.011,0,0,1-.237,1.425,3.011,3.011,0,0,0-.237,1.425c0,1.425.237,2.612.237,3.8a14.012,14.012,0,0,0,.475,3.324c.237.712.712,1.425.95,2.137a4.741,4.741,0,0,1,.475,2.137v1.425a1.525,1.525,0,0,1,1.187,1.187c.237.475.237.95.475,1.425a3.374,3.374,0,0,0,.475,1.425,2.18,2.18,0,0,0,1.425.95,4.189,4.189,0,0,0,1.9,2.137,4.86,4.86,0,0,1,1.9,1.9,7.944,7.944,0,0,0,3.324,3.561,22.539,22.539,0,0,0,4.986,2.137,48.475,48.475,0,0,0,7.123,2.137,15.654,15.654,0,0,1,2.137.475,4.178,4.178,0,0,0,1.425-.237,7.09,7.09,0,0,1,3.324-1.425c1.187-.237,2.612-.237,4.036-.475l4.274-2.137a10.512,10.512,0,0,0,3.561-2.849,4.757,4.757,0,0,1,2.849-2.374,2.432,2.432,0,0,1,1.187-1.425l1.425-1.424.237.237a.233.233,0,0,0,.237-.237v-.237a17.826,17.826,0,0,0,1.662-1.9,8.023,8.023,0,0,0,1.425-2.849,4.265,4.265,0,0,1,.712-2.612,3.545,3.545,0,0,0,.712-2.374v-.95a2.155,2.155,0,0,1,.712-1.662,2.155,2.155,0,0,0,.712-1.662,8.178,8.178,0,0,0-.237-2.137A9.483,9.483,0,0,1,117.944,88.877Z" transform="translate(83.551 16.353)" fill="none"/>
    <path id="Path_90" data-name="Path 90" d="M113.475,67.075v-.237a.233.233,0,0,0-.237-.237H113C113.237,67.075,113.237,67.075,113.475,67.075Z" transform="translate(152.123 29.133)" fill="none"/>
    <path id="Path_91" data-name="Path 91" d="M122.812,56.212h0c.237-.475,0-.712-.237-.712s-.475,0-.475.237C122.337,55.975,122.337,56.212,122.812,56.212Z" transform="translate(164.629 13.879)" fill="none"/>
    <path id="Path_92" data-name="Path 92" d="M132.05,52.9h0c-.237-.237-.475,0-.712.237l-.237.237h0c.475,0,.712,0,.95-.237V52.9Z" transform="translate(176.996 10.066)" fill="none"/>
    <path id="Path_93" data-name="Path 93" d="M125.212,55.25a.872.872,0,0,0,.712-.237v-.237a.511.511,0,0,0-.475-.475h-.712c0,.237-.237.475-.237.95h.712Z" transform="translate(167.927 12.23)" fill="none"/>
    <path id="Path_94" data-name="Path 94" d="M120.437,56.9l-.237.237a1.04,1.04,0,0,0,.712.237C120.675,57.137,120.675,56.9,120.437,56.9Z" transform="translate(162.018 15.803)" fill="none"/>
    <path id="Path_95" data-name="Path 95" d="M118.65,53.337c0-.237-.237-.237-.712-.237-.237,0-.237,0-.237.237v.237l.237.237C118.412,53.337,118.65,53.337,118.65,53.337Z" transform="translate(158.582 10.581)" fill="none"/>
    <path id="Path_96" data-name="Path 96" d="M117.536,58.512c.475,0,.712,0,.95-.237,0-.712-.237-.95-.712-.95a1.814,1.814,0,0,1-1.187-.475c-.95,0-1.662-.237-1.9-.95h-.712c-.237,0-.475,0-.475.237a10.049,10.049,0,0,1,1.662,1.187A3.778,3.778,0,0,0,117.536,58.512Z" transform="translate(152.81 14.429)" fill="none"/>
    <path id="Path_97" data-name="Path 97" d="M111.2,53.85a1.233,1.233,0,0,1,.95.475c.237.475.475.475.95.475s.712,0,.712-.237v-.95a4.011,4.011,0,0,0-1.187-.475,2.14,2.14,0,0,0-1.187-.237c-.237,0-.237.237-.237.475C110.966,53.612,110.966,53.85,111.2,53.85Z" transform="translate(149.409 10.306)" fill="none"/>
    <path id="Path_98" data-name="Path 98" d="M115.512,51.487h.95a.63.63,0,0,0,.712-.712c0-.237-.237-.475-.712-.475h-.95c0,.237-.237.237-.475.237s-.237,0-.237.237a.233.233,0,0,0,.237.237h.475Z" transform="translate(154.597 6.734)" fill="none"/>
    <path id="Path_99" data-name="Path 99" d="M118.175,57.474A9.337,9.337,0,0,0,119.6,57c.712-.237,1.187-.712,1.187-1.187a.233.233,0,0,0-.237-.237.233.233,0,0,1-.237-.237V55.1a3.431,3.431,0,0,1-1.662.475c-.712.237-.95.475-.95.95C117.7,57.474,117.937,57.474,118.175,57.474Z" transform="translate(158.582 13.33)" fill="none"/>
    <path id="Path_100" data-name="Path 100" d="M29.775,46.6h0Z" transform="translate(37.103 1.649)" fill="#fff"/>
    <path id="Path_101" data-name="Path 101" d="M110.326,131.234c-.237-1.187-.712-2.137-.95-3.324a25.9,25.9,0,0,0-1.425-2.612v-.95a3.932,3.932,0,0,0-1.187-2.849,5.416,5.416,0,0,1-1.425-2.849v-.475a2.9,2.9,0,0,0-.712-2.137,3.827,3.827,0,0,1-.95-1.662,10.283,10.283,0,0,0,.237-1.187,3.243,3.243,0,0,0-.95-2.612,2.958,2.958,0,0,1-.95-2.612c0,.237,0,0-.237-.712a2.18,2.18,0,0,0-.95-1.425v-.712a4.378,4.378,0,0,0-.95-3.086,3.861,3.861,0,0,1-.95-2.137V97.757a18.85,18.85,0,0,1-2.374-6.41,3.527,3.527,0,0,1-1.425-3.086,7.865,7.865,0,0,0-.95-3.561,2.931,2.931,0,0,0-.95-1.9,3.009,3.009,0,0,1-.95-2.137c0-.475,0-.712.237-.95-.475,0-.712-.237-.95-.95-.237-.475-.237-1.187-.475-1.9a6.932,6.932,0,0,0-.475-2.137,2.18,2.18,0,0,0-.95-1.424v-.95a3.063,3.063,0,0,0-1.187-2.612A3.063,3.063,0,0,1,87.3,67.13a1.779,1.779,0,0,1,.237-1.187,1.6,1.6,0,0,1-.95-1.425c-.237-.712-.237-1.187-.475-1.9a3.431,3.431,0,0,0-.475-1.662,4.966,4.966,0,0,0-.95-1.425A9.092,9.092,0,0,0,83.5,55.022a14.323,14.323,0,0,1-1.425-4.511l-1.9-1.9c-.712-.475-1.187-.95-1.9-1.425a3.829,3.829,0,0,0-2.137-.712A6.573,6.573,0,0,0,74,46.712c-.712,0-1.187.237-1.662.237s-.95-.237-1.9-.237H67.828c-.712,0-1.425.237-2.137.237h0c-2.612,0-7.36-.237-9.5-.475C53.82,46.237,51.208,46,48.6,46a15.675,15.675,0,0,0-3.324.237,6.3,6.3,0,0,0-3.324,1.187,6.4,6.4,0,0,1-1.662,1.9,6.4,6.4,0,0,0-1.662,1.9V52.41a5.392,5.392,0,0,1-1.425,3.8,9.618,9.618,0,0,1,0,2.612,4.786,4.786,0,0,1-.712,2.612,3.048,3.048,0,0,1-.95,2.374,9.623,9.623,0,0,0-1.187,2.137,3.011,3.011,0,0,0-.237,1.425,3.011,3.011,0,0,1-.237,1.425,4.7,4.7,0,0,0-1.187,3.324A5.832,5.832,0,0,1,31.5,75.677c-.712.475-.95,1.187-1.187,2.612,0,1.187-.237,2.137-.712,2.374a2.565,2.565,0,0,0-.712,1.662c0,.712-.237,1.187-.237,1.9a5.588,5.588,0,0,1-.475,1.9,2.18,2.18,0,0,1-.95,1.425,5,5,0,0,1-1.187,3.086,4.642,4.642,0,0,0-.95,3.324v.475a7.358,7.358,0,0,0-1.425,3.086,11.754,11.754,0,0,1-.95,3.086l-.712,1.425c-.237.475-.475,1.187-.712,1.662a2.5,2.5,0,0,0-.95,2.374,3.545,3.545,0,0,1-.712,2.374l-1.425,4.274-1.425,4.274a5.588,5.588,0,0,0-.475,1.9,3.431,3.431,0,0,1-.475,1.662c0-.237,0,0-.237.475a11.574,11.574,0,0,0-.712,1.662,7.108,7.108,0,0,1-.95,1.9,2.938,2.938,0,0,1-.475.712,1.779,1.779,0,0,1,.237,1.187,2.159,2.159,0,0,1-.95,1.9,2.931,2.931,0,0,0-.95,1.9V131c0,.712,0,1.425-.237,1.662a4.967,4.967,0,0,1-.95,1.425c-.475.712-.712,1.424-1.425,2.612a54.968,54.968,0,0,0-1.9,5.223v.712a2.314,2.314,0,0,1-.95,2.137,4.259,4.259,0,0,0-1.187,1.662v.712a2.7,2.7,0,0,1-.712,1.9,2.7,2.7,0,0,0-.712,1.9,5.063,5.063,0,0,1-.712,2.849A6.672,6.672,0,0,0,2.3,157.35a3.789,3.789,0,0,0,1.9,3.324,9.82,9.82,0,0,0,4.511,1.187h4.036a15.673,15.673,0,0,1,3.324.237,20.424,20.424,0,0,0,3.8.237,4.786,4.786,0,0,0,2.612-.712,4.265,4.265,0,0,1,2.612-.712,14.1,14.1,0,0,1,2.612.237,23.034,23.034,0,0,0,4.036.237,3.838,3.838,0,0,0,2.374-.95,25.233,25.233,0,0,0,2.612-2.137,3.829,3.829,0,0,0,.712-2.137,10.1,10.1,0,0,1,.475-2.612A3.238,3.238,0,0,0,39.1,150.7a7.928,7.928,0,0,1,.712-3.561,20.352,20.352,0,0,1,.712-3.086,4.772,4.772,0,0,1,.95-1.9,2.159,2.159,0,0,1,1.9-.95H48.6a15.674,15.674,0,0,1,3.324.237c1.187,0,2.137.237,3.324.237a5.67,5.67,0,0,0,2.137-.475,11.573,11.573,0,0,0,1.662-.712,47.686,47.686,0,0,1,5.935.237,51.637,51.637,0,0,0,6.173.237h2.137a6.573,6.573,0,0,0,2.137-.237H77.8a12.251,12.251,0,0,1,2.612.475c.95.237,1.425,1.187,1.425,2.612V145a1.59,1.59,0,0,0,.95,1.662,1.792,1.792,0,0,1,.95,1.662,5.347,5.347,0,0,0-.237,1.662,3.784,3.784,0,0,0,.95,2.849,3.784,3.784,0,0,1,.95,2.849,5.348,5.348,0,0,1-.237,1.662,6.567,6.567,0,0,0,4.274,3.561,26,26,0,0,0,6.41.95,12.544,12.544,0,0,0,3.086-.237,12.543,12.543,0,0,1,3.086-.237,30.273,30.273,0,0,1,4.511.237h.95c0-.237,0-.237-.237-.237-.712-1.9-1.187-2.849-1.187-3.561V156.4a4.473,4.473,0,0,0-.475-1.9,4.4,4.4,0,0,1-.475-1.662,8.9,8.9,0,0,1,.237-2.612c.237-.712.475-1.662.712-2.612a3.784,3.784,0,0,0,.95-2.849,5.063,5.063,0,0,1,.712-2.849,3.192,3.192,0,0,1,1.662-1.425c.712-.237.95-.95.95-2.137a13.171,13.171,0,0,1,1.9-1.425,7.426,7.426,0,0,1-1.187-2.374C110.8,133.37,110.563,132.421,110.326,131.234Zm-89.745,2.374h-.475c-.237,0-.237,0-.237-.237l.237-.237h.712a.233.233,0,0,1,.237.237v.237Zm3.086,10.921c-.237,0-.475-.237-.95-.475a1.306,1.306,0,0,1-.712-1.187c0-.237.237-.475.712-.475a1.814,1.814,0,0,1,1.187.475,3.277,3.277,0,0,1,.95.712C24.855,144.292,24.38,144.529,23.668,144.529Zm10.209-7.36a2.582,2.582,0,0,1-1.187.237c-.237,0-.237,0-.237-.237l.237-.237c-.237,0-.237,0-.237-.237a.233.233,0,0,0,.237-.237l-.237-.237c0-.237,0-.237.237-.237s.237,0,.237-.237h.95c.475,0,.712.237.712.475C34.589,136.694,34.352,136.932,33.877,137.169Zm1.9-8.547a2.052,2.052,0,0,1-1.425.712,4.635,4.635,0,0,1-1.662-.237c-.712-.237-1.425-.237-2.137-.475a16.353,16.353,0,0,1-1.9-.712,1.272,1.272,0,0,1-.712-.95c0-.237.237-.237.712-.237h1.662a11.56,11.56,0,0,0,2.849.237,13.626,13.626,0,0,0,2.849-.237.872.872,0,0,0,.712.237c.237,0,.475,0,.475.237C36.488,127.91,36.251,128.385,35.776,128.622Zm1.187,13.3h0c-.237.237-.237,0-.237,0Zm3.086-5.461c0,.237-.237.237-.475.237h-.95l-.475-.475a.829.829,0,0,0-.475-.237c0-.237.237-.475.712-.475h.95c0,.237,0,.237.237.237h0c.237,0,.237,0,.237.237s0,.237.237.237Zm1.9-14.72c0,.475-.237.712-.95.712-.475,0-1.187.237-1.9.237a6.933,6.933,0,0,1-2.137-.475c-.712-.237-.95-.475-.95-.95a16.358,16.358,0,0,1,1.9-.712,5.9,5.9,0,0,1,1.9-.237,2.159,2.159,0,0,1,1.9.95v.475Zm-.475-9.972H40.05a3.151,3.151,0,0,1-2.374-.712c.237-.475.475-.712.95-.712a2.14,2.14,0,0,0,1.187-.237c.237.237.475.475.712.237a.872.872,0,0,1,.712.237c.237,0,.95.475,1.662.712C42.424,111.528,41.949,111.528,41.474,111.765Zm29.44-48.434a2.007,2.007,0,0,1,1.425-.475h.712c.237,0,.237.475.237.95-.237.237-.237.475-.475.712,0,.237-.237.237-.475.237H72.1a8.4,8.4,0,0,1-1.425.237c-.712,0-1.187,0-1.425-.237A3.42,3.42,0,0,0,70.914,63.332Zm3.561,12.346c-.475.237-.95.237-1.187.475H71.864a.511.511,0,0,1-.475-.475c0-.237,0-.475.237-.475h1.425A1.057,1.057,0,0,1,74.476,75.677Zm-5.223-5.7c.237,0,.475-.237.712-.237a4.581,4.581,0,0,1,2.374.712q0,.712-1.425.712h-1.9l-.237-.237C68.777,70.454,68.777,70.217,69.252,69.979Zm-4.274-4.511c0-.475.475-.475.95-.475h.95c0,.237.237.237.475.237s.237,0,.475.237a1.233,1.233,0,0,0-.475.95c0,.237-.237.475-.475.712H65.454a1.1,1.1,0,0,1-1.187-.712A3.277,3.277,0,0,1,64.979,65.468Zm-.712,8.31a2.37,2.37,0,0,1,1.187.95,3.009,3.009,0,0,0,2.137.95,1.57,1.57,0,0,1,1.425,1.662c0,.237-.237.475-.712.475a10.283,10.283,0,0,0-1.187.237,1.4,1.4,0,0,1-1.187-.475,1.8,1.8,0,0,1-.475-.95c-.237-.237-.475-.712-.712-.95a2.271,2.271,0,0,0-1.662-.475,8.435,8.435,0,0,0-2.374.475,7.024,7.024,0,0,1-2.374.475h-.712c0-1.187.237-1.662.712-1.9s1.187-.475,1.662-.712H62.6C63.079,73.541,63.554,73.778,64.266,73.778ZM58.094,61.907c.237,0,.475-.237.712-.237a2.052,2.052,0,0,1,1.425.712c0,.475-.475.712-1.187.712h-.95l-.475-.475c-.237,0-.237-.237-.237-.475A.872.872,0,0,0,58.094,61.907Zm-3.8,8.072a.511.511,0,0,0,.475-.475h1.425c.237,0,.475,0,.475.237a2.159,2.159,0,0,1-1.9.95h-.475c-.237,0-.237,0-.237-.237C53.82,70.454,53.82,70.217,54.295,69.979ZM56.432,79c-.237.237-.475.475-.475.712-.237.237-.237.237-.475.237,0-.237-.237-.475-.237-.95,0-.237.237-.237.712-.237C56.194,78.764,56.432,78.764,56.432,79ZM46.7,80.426a.872.872,0,0,0,.712-.237c.475.237.712.237,1.187.475.237,0,.475.237.712.475v.237a.511.511,0,0,1-.475.475c-.237,0-.475.237-.712.475a4.011,4.011,0,0,0-1.187-.475c-.475,0-.475-.475-.475-.95C46.223,80.663,46.46,80.426,46.7,80.426Zm.237,6.173a1.8,1.8,0,0,1,.95.237h.237a1.04,1.04,0,0,1,.237.712H47.172a1.1,1.1,0,0,1-1.187-.712A1.427,1.427,0,0,1,46.935,86.6Zm-.95,17.094c0-.237,0-.237.237-.475.237,0,.237-.237.237-.475h1.187c.237,0,.237,0,.237.237v.475c-.237,0-.475.237-.712.475a.872.872,0,0,1-.712.237A.511.511,0,0,1,45.985,103.693Zm.237,5.935c0-.237,0-.237.237-.475.237,0,.237-.237.475-.475h.95c.475,0,.712.237.712.475v.475a4.082,4.082,0,0,1-1.9.237Zm3.561,14.72H48.6v-.237a.233.233,0,0,0-.237-.237l-.237-.237c0-.237.237-.237.475-.475h.475q.356,0,.712.712Zm8.547,4.274-.237-.237c0-.237.237-.475.712-.475.237,0,.475,0,.475.237S59.043,128.622,58.331,128.622Zm9.022-11.159H65.691a38.971,38.971,0,0,1-5.461-.475,20.366,20.366,0,0,0-5.461-.475H53.345a3.011,3.011,0,0,0-1.425.237,4.031,4.031,0,0,0-1.425-1.425,1.792,1.792,0,0,1-.95-1.662c.237-.712.475-1.662.712-2.374a6.932,6.932,0,0,0,.475-2.137,15.13,15.13,0,0,1,.475-1.662A12.724,12.724,0,0,1,52.4,104.88a5.64,5.64,0,0,0,.712-2.849v-.712a11.09,11.09,0,0,1,1.187-2.374,5.063,5.063,0,0,0,.712-2.849v-.712a11.575,11.575,0,0,1,.712-1.662,4.967,4.967,0,0,1,.95-1.425V89.923a3.243,3.243,0,0,1,.95-2.612,4.029,4.029,0,0,0,.95-3.086c0-.237.237-.475.237-.712s.237-.475.237-.712v-.475a8.434,8.434,0,0,1,.95-2.137A2.779,2.779,0,0,1,62.6,79a1.779,1.779,0,0,1,1.187.237,8.9,8.9,0,0,1,.237,2.612c0,.95.475,1.662,1.425,1.662a5.189,5.189,0,0,0,1.187-.712,2.546,2.546,0,0,1,1.425-.475,1.234,1.234,0,0,1-.475.95c-.237.237-.475.237-.95.475a3.277,3.277,0,0,0-.95.712,2.007,2.007,0,0,0-.475,1.425,6.573,6.573,0,0,0,.237,2.137,2.724,2.724,0,0,1,1.187,2.849,5.024,5.024,0,0,0,.95,3.324,6.734,6.734,0,0,0,.95,3.086,6.572,6.572,0,0,1,.712,3.086c.237.475.712,1.424,1.187,2.612s.95,2.612,1.425,4.036a28.7,28.7,0,0,1,1.187,4.274,22.892,22.892,0,0,1,.475,2.849,1.4,1.4,0,0,1-.475,1.187c-.475.237-.712.475-1.187.475s-.95.237-1.662.237a1.306,1.306,0,0,0-1.187.712A1.768,1.768,0,0,1,67.353,117.463ZM74,126.485a.63.63,0,0,1-.712.712,5.147,5.147,0,0,1-3.324-1.187c0-.237,0-.475.237-.475s.475-.237.712-.237h.237a1.427,1.427,0,0,0,.95-.237c.237,0,.712-.237.95-.237a.872.872,0,0,1,.712.237v1.424Zm-.237-41.074h0c0-.475,0-.475.237-.475a.233.233,0,0,0,.237-.237h1.425c.475,0,.712,0,.712.237s-.475.237-1.187.237H73.763ZM74.95,105.83l-.475-.475a1.187,1.187,0,0,1,1.425,0C75.425,105.592,75.188,105.83,74.95,105.83Zm1.662,17.332c0,.237-.237.237-.712.237-.237,0-.237-.237-.237-.475a.872.872,0,0,1,.237-.712c.237,0,.475,0,.475.237s0,.237.237.237Zm16.145-3.086c.237,0,.237,0,.237.237l-.237.237a.233.233,0,0,1-.237-.237A.233.233,0,0,0,92.757,120.075Zm-5.7-19.943h.712c.237,0,.237,0,.237.237h-.95c.237.237,0,0,0-.237Zm.475,5.461a1.234,1.234,0,0,1,.95.475c0,.475-.237.712-.712.475a1.078,1.078,0,0,0-1.187,0v-.475C86.347,105.83,86.821,105.592,87.534,105.592ZM85.4,116.751h0l.237-.475a5.348,5.348,0,0,1,1.662-.237h.95c.237,0,.475.237.95.237v.237c0,.475-.237.712-.712.95H87.059a2.14,2.14,0,0,1-1.187-.237c-.475,0-.712,0-.475-.475Zm2.374,4.986h0l-.237.237a1.04,1.04,0,0,1-.237-.712Zm-6.648-8.072h.712l.237.237v.475h-.712a.872.872,0,0,1-.237-.712Zm-.712,6.41a.233.233,0,0,0,.237-.237V119.6H83.26c.237,0,.237.237.237.475v.95a3.374,3.374,0,0,1-1.425.475,3.431,3.431,0,0,1-1.662-.475C80.174,120.312,80.411,120.075,80.411,120.075Zm10.921,17.806h0c-.475.237-.475,0-.475,0v-.237a.511.511,0,0,1,.475-.475c.237,0,.237.237.237.475C91.332,137.644,91.332,137.644,91.332,137.881Zm2.849-11.159a7.025,7.025,0,0,0-2.374.475l-1.187-.475a5.9,5.9,0,0,0-1.9-.237,8.535,8.535,0,0,0-2.612.475,10.1,10.1,0,0,1-2.612.475,5.588,5.588,0,0,1-1.9-.475h-.712a1.779,1.779,0,0,1-1.187-.237c-.475-.237-.475-.475-.475-.95a.233.233,0,0,1,.237-.237h.475a5.228,5.228,0,0,1,1.9-.237,14.012,14.012,0,0,1,3.324.475,12.376,12.376,0,0,0,3.324.475,7.928,7.928,0,0,0,3.561-.712,7.584,7.584,0,0,1,3.324-.712,2.155,2.155,0,0,1,1.662.712A5.637,5.637,0,0,1,94.181,126.723ZM99.4,137.406a1.838,1.838,0,0,1-.712-.237.511.511,0,0,1-.475-.475v-.712c1.187,0,1.9.237,1.9.712A.63.63,0,0,1,99.4,137.406Z" transform="translate(0 0.824)" fill="#fff"/>
    <path id="Path_102" data-name="Path 102" d="M143.356,150.577c.237-.95.475-1.662.712-2.612a4.378,4.378,0,0,0,.95-3.086,6.572,6.572,0,0,1,.712-3.086,3.692,3.692,0,0,1,1.9-1.424c.712-.237.95-1.187.95-2.374,1.425-.95,3.086-2.374,4.986-3.8a10.694,10.694,0,0,1,5.936-2.137h1.187a11.292,11.292,0,0,1,4.274-1.187h0a22.4,22.4,0,0,1,.712-2.137,4.259,4.259,0,0,1,1.187-1.662,4.831,4.831,0,0,1-.237-1.187,3.4,3.4,0,0,1,1.187-2.612A3.932,3.932,0,0,0,169,120.425V118.05a1.848,1.848,0,0,1,.712-1.662c.237-1.187.237-2.137.475-3.324,0-1.187.237-2.374.237-3.561a2.155,2.155,0,0,0,.712-1.662,3.011,3.011,0,0,0-.237-1.425c0-.475-.237-.95-.237-1.425a3.011,3.011,0,0,1,.237-1.425c0-.475.237-1.187.237-1.9a4.473,4.473,0,0,0-.475-1.9,3.678,3.678,0,0,1-.475-1.9V96.208c0-.95-.237-1.662-.712-1.9a8.4,8.4,0,0,0,.237-1.425A5.063,5.063,0,0,0,169,90.035a5.063,5.063,0,0,1-.712-2.849v-.712a5.606,5.606,0,0,1-1.425-2.137,11.574,11.574,0,0,1-.95-2.612,5.832,5.832,0,0,0-1.187-3.561,34.735,34.735,0,0,1-2.137-3.086,4.772,4.772,0,0,1-.95-1.9,9.045,9.045,0,0,0-.712-2.374,9.519,9.519,0,0,1-3.324-3.561,21.514,21.514,0,0,0-2.612-3.8,5.17,5.17,0,0,1-1.9-1.187l-1.425-1.425c-.475-.475-.95-1.187-1.424-1.425a14.1,14.1,0,0,0-1.9-.95,6.4,6.4,0,0,0-1.9-1.662c-.712-.475-1.662-.95-2.374-1.425a5.606,5.606,0,0,0-2.137-1.425,3.457,3.457,0,0,1-2.137-1.425,1.95,1.95,0,0,1-1.187-1.187,2.155,2.155,0,0,0-1.662-.712,6.447,6.447,0,0,1-4.036-1.425,6.628,6.628,0,0,0-4.274-1.425h-.712a4.473,4.473,0,0,1-1.9-.475,2,2,0,0,0-1.662-.475,16.356,16.356,0,0,0-1.9-.712c-.712-.237-1.662-.237-2.612-.475-.95,0-1.662-.237-2.612-.237h-3.086a18.327,18.327,0,0,1-3.561.475,14.6,14.6,0,0,1-3.324-.237,16.893,16.893,0,0,0-3.8-.237,7.311,7.311,0,0,0-3.086.712H99.2a11.917,11.917,0,0,0-2.849.475,9.922,9.922,0,0,0-2.374.95,9.922,9.922,0,0,0-2.374.95,11.917,11.917,0,0,1-2.849.475,20.88,20.88,0,0,1-2.374,1.425A4.581,4.581,0,0,1,84,51.1a2.979,2.979,0,0,0-2.612,1.425,3.148,3.148,0,0,1-2.374,1.425,7.815,7.815,0,0,0-4.274,2.374,42.105,42.105,0,0,1-4.036,3.324c0,.475-.475.95-1.187,1.425a3.532,3.532,0,0,0-1.662,0c-1.662,1.662-3.086,3.324-4.274,4.748-1.187,1.662-2.612,3.086-3.8,4.511A2.748,2.748,0,0,0,58.6,71.991l-.712,2.137a35.143,35.143,0,0,1-1.9,3.086A7.358,7.358,0,0,0,54.561,80.3a24.225,24.225,0,0,1-2.137,5.223,22.977,22.977,0,0,0-1.9,5.7,22.6,22.6,0,0,1-.712,5.936,20.776,20.776,0,0,0-.712,5.7,8.077,8.077,0,0,0,.237,2.374c0,.712.237,1.662.237,2.374v.95a27.264,27.264,0,0,1,.237,4.511c0,1.662.237,3.086,1.187,3.8.237,1.425.475,2.612.712,3.8a10.055,10.055,0,0,0,1.425,3.324v.475a3.243,3.243,0,0,0,.95,2.612,2.958,2.958,0,0,1,.95,2.612v.237c0,.475,0,.712.237.712s.237.475.475.712c.712.237,1.187.475,1.425,1.187.237.237.237.475.475.712h.712a9.649,9.649,0,0,1,4.986-1.187c.712,0,1.187,0,1.425.237a3.012,3.012,0,0,0,1.425.237,11.408,11.408,0,0,1,7.36,2.374c1.9,1.662,3.8,2.849,4.986,3.8a5.8,5.8,0,0,1,2.137,2.612,11.193,11.193,0,0,1,1.425,3.561,19.778,19.778,0,0,1,.95,3.561,9.185,9.185,0,0,1,.237,2.137,8.906,8.906,0,0,1-.237,2.374,8.077,8.077,0,0,0-.237,2.374,6.932,6.932,0,0,0,.475,2.137c-.237.237-.475.475-.475.712,1.662.712,3.324,1.187,5.223,1.9a80.114,80.114,0,0,1,9.022,3.086,12.629,12.629,0,0,1,4.748,1.187,11.967,11.967,0,0,0,4.511.712,3.52,3.52,0,0,0,1.662-.237l.237-.237h.95a15.674,15.674,0,0,1,3.324.237,15.674,15.674,0,0,0,3.324.237h1.9c0-.475.475-.712.95-.712s.95-.237,1.425-.237h1.425a1.814,1.814,0,0,0,1.187-.475.829.829,0,0,1,.475-.237c.237,0,.237,0,.475.237a.829.829,0,0,0,.475.237.735.735,0,0,0,.475-.237,7.089,7.089,0,0,1,4.748-1.425,4.507,4.507,0,0,0,2.137-.712,3.545,3.545,0,0,1,2.374-.712,16.166,16.166,0,0,1,4.986-2.374,12.45,12.45,0,0,0,4.274-2.374,1.854,1.854,0,0,1,.95-.95,2.582,2.582,0,0,1-.237-1.187A4.4,4.4,0,0,1,143.356,150.577Zm17.569-58.168c.475.237.712.475.95.237s.475,0,.475.237a2.052,2.052,0,0,1-1.425.712h-.237A1.779,1.779,0,0,1,160.925,92.409Zm-11.159,34.663c0,.237,0,.475-.237.475s-.237.237-.475.475h-.95a.63.63,0,0,1-.712-.712c0-.237.237-.475.95-.475a2.581,2.581,0,0,1,1.187-.237c.237-.237.237,0,.237.475ZM148.1,98.107a2.581,2.581,0,0,1,1.187.237,1.233,1.233,0,0,1,.95.475v.237c0,.475-.237.712-.475.712h-.712c-.712,0-1.187-.237-1.424-1.187C147.629,98.345,147.629,98.107,148.1,98.107Zm0,6.41c.475,0,.712,0,.95.237h.237c.237,0,.237,0,.237.237v.475c-.475,0-.95-.237-1.187,0-.475,0-.712-.237-.95-.712C147.392,104.517,147.629,104.517,148.1,104.517Zm-.712,15.907a3.011,3.011,0,0,1,1.425-.237c.712,0,1.187.237,1.187.712a4.011,4.011,0,0,1-2.374.712c-.712,0-.95-.237-.95-.475C146.917,120.9,146.917,120.662,147.392,120.425ZM57.41,93.121H56.7a.829.829,0,0,1-.237-.475c0-.237,0-.237.237-.237.475,0,.712.237.712.475C57.885,93.121,57.647,93.121,57.41,93.121Zm14.008,11.634a1.848,1.848,0,0,1-1.662.712h-.712c-.237,0-.237,0-.237-.237s0-.475.237-.475.237-.237.475-.475a1.779,1.779,0,0,0,1.187.237C70.943,104.28,71.18,104.517,71.417,104.755Zm-3.086-5.461a1.122,1.122,0,0,1,1.187-1.187,2.007,2.007,0,0,1,1.425.475v.475c0,.237,0,.237-.237.237a.872.872,0,0,0-.712.237H68.806C68.568,99.769,68.331,99.769,68.331,99.294Zm2.137,28.49-.237.237a.872.872,0,0,1-.712-.237c-.237-.237-.475-.237-.712-.475a.511.511,0,0,1,.475-.475c.237,0,.475-.237.712-.237a.233.233,0,0,0,.237.237h.237c.237,0,.237,0,.237.237v.475a.233.233,0,0,1,.237.237C70.943,127.31,70.943,127.31,70.468,127.785Zm.475-5.936H69.518a.511.511,0,0,0-.475-.475c-.237,0-.475-.237-.475-.712,0-.237.237-.475.712-.475h1.425c.237.237.475.475.712.475s.237.237.237.712C71.655,121.612,71.417,121.849,70.943,121.849Zm5.935,7.36h-.712a2.052,2.052,0,0,1,1.425-.712c.475,0,.712,0,.95.237A2.26,2.26,0,0,1,76.878,129.209Zm3.086-56.268H78.777a.63.63,0,0,1-.712-.712h.95a2.14,2.14,0,0,1,1.187.237c.237.237.712.237.95.475Zm.237-5.935c-.237,0-.237-.237-.237-.475s.237-.237.475-.237c.475,0,.712.237.712.475C80.914,66.768,80.677,67.005,80.2,67.005Zm57.218-1.187c.475,0,.712,0,.712.237h.95v.237c0,.237-.237.475-.95.475a.233.233,0,0,0-.237-.237c-.237,0-.237-.237-.237-.475Zm-2.137,13.77a.829.829,0,0,0,.237-.475h.712c.237,0,.237.237.237.475v.237a.872.872,0,0,0-.712.237c-.237,0-.237.237-.475.237a.233.233,0,0,1-.237-.237A.735.735,0,0,0,135.283,79.588ZM123.65,63.681c.237,0,.475-.237.712-.237a3.011,3.011,0,0,1,1.425.237c.475.237.712.475.712.95-.475.237-.712.475-1.187.475a2.14,2.14,0,0,1-1.187.237c-.475-.475-.712-.712-.712-1.187C123.412,64.156,123.412,63.681,123.65,63.681Zm-8.785,0a3.011,3.011,0,0,1,1.425-.237,1.233,1.233,0,0,1,.95.475,3.048,3.048,0,0,1-2.374.95c-.712,0-.95-.237-.95-.475A3.277,3.277,0,0,1,114.865,63.681Zm-12.583-.237a3.011,3.011,0,0,1,1.425.237c.475,0,.712.475.712.95-.237.237-.475.237-1.187.237-1.425,0-1.9-.237-1.9-.712C101.57,63.681,101.807,63.444,102.282,63.444Zm-9.5.237a2.14,2.14,0,0,1,1.187-.237,1.436,1.436,0,0,1,1.425.712v.237a.872.872,0,0,1-.237.712l-.475.475a3.374,3.374,0,0,1-1.425-.475c-.712-.237-.95-.475-.95-.712C92.073,64.156,92.31,63.919,92.785,63.681ZM82.576,80.3c-.237,0-.237-.237-.475-.237s-.237-.237-.237-.475c0-.475.237-.712,1.187-.712l.475.475c.237,0,.237.237.475.475V80.3a.829.829,0,0,1-.475.237h-.95Zm14.957,71.226h-.95v-.237c0-.237,0-.237.237-.237a.233.233,0,0,0,.237-.237c.237,0,.237,0,.475.237,0,.237.237.237.475.237A.829.829,0,0,1,97.534,151.526Zm23.742,0h-.95c0-.237,0-.237.237-.475a.829.829,0,0,0,.237-.475.829.829,0,0,0,.475.237h.237c.237,0,.475,0,.475.237S121.75,151.526,121.276,151.526Zm14.008-5.223a.63.63,0,0,1-.712-.712h.712c.237,0,.475,0,.475.237C135.758,146.3,135.521,146.3,135.283,146.3Zm1.9-34.9a2.155,2.155,0,0,0-.712,1.662v.95a3.545,3.545,0,0,1-.712,2.374,3.819,3.819,0,0,0-.712,2.612,15.61,15.61,0,0,1-1.425,2.849,7.063,7.063,0,0,1-1.662,1.9v.237c0,.237,0,.237-.237.237l-.237-.237a4.031,4.031,0,0,1-1.425,1.425c-.475.475-.712.95-1.187,1.425a4.62,4.62,0,0,0-2.849,2.374,6.864,6.864,0,0,1-3.561,2.849l-4.274,2.137a26.436,26.436,0,0,1-4.036.475,8.324,8.324,0,0,0-3.324,1.425,5.086,5.086,0,0,1-1.425.237,8.372,8.372,0,0,0-2.137-.475,48.475,48.475,0,0,1-7.123-2.137,22.539,22.539,0,0,1-4.986-2.137c-1.662-.95-2.849-1.9-3.324-3.561a4.86,4.86,0,0,0-1.9-1.9,4.189,4.189,0,0,1-1.9-2.137,1.6,1.6,0,0,1-1.425-.95,3.375,3.375,0,0,1-.475-1.424,3.374,3.374,0,0,0-.475-1.425A1.95,1.95,0,0,0,84.475,119v-1.425A6.932,6.932,0,0,0,84,115.439a9.306,9.306,0,0,1-.95-2.137,14.012,14.012,0,0,1-.475-3.324c0-1.187-.237-2.374-.237-3.8a3.011,3.011,0,0,1,.237-1.425,3.011,3.011,0,0,0,.237-1.425,1.779,1.779,0,0,0-.237-1.187,3.52,3.52,0,0,1-.237-1.662,12.4,12.4,0,0,1,.95-4.986c.475-1.662.95-3.086,1.425-4.748a35.713,35.713,0,0,1,2.137-4.274,31.915,31.915,0,0,1,2.612-3.324L92.31,80.3a36.518,36.518,0,0,0,2.849-3.086,6.482,6.482,0,0,0,2.849-2.137,32.713,32.713,0,0,1,3.8-1.425,14.941,14.941,0,0,1,2.849-.712,6.932,6.932,0,0,1,2.137.475,7.024,7.024,0,0,0,2.374.475,1.779,1.779,0,0,0,1.187-.237,7.929,7.929,0,0,1,3.561-.712,8.674,8.674,0,0,1,3.561.712,11.754,11.754,0,0,0,3.086.95,2.432,2.432,0,0,0,1.187,1.425,4.966,4.966,0,0,1,1.425.95,4.966,4.966,0,0,1,1.424.95c.475.237.712.712,1.187,1.425a5.875,5.875,0,0,1,3.8,2.374,12.041,12.041,0,0,0,2.137,3.8,12.041,12.041,0,0,1,2.137,3.8,23.3,23.3,0,0,1,2.612,5.935,23.084,23.084,0,0,1,1.187,6.41,3.011,3.011,0,0,1-.237,1.425,3.012,3.012,0,0,0-.237,1.425,8.907,8.907,0,0,0,.237,2.374,8.178,8.178,0,0,1,.237,2.137C137.895,110.453,137.657,110.928,137.183,111.4Zm1.187-38.462h-.475c-.237,0-.237,0-.237-.237s.237-.475.95-.712a4.635,4.635,0,0,1,1.662-.237c.237,0,.237,0,.237.237v.237c-.475,0-.712.237-1.187.475C139.082,72.941,138.845,72.941,138.37,72.941Zm4.036,56.268h-.475a2.007,2.007,0,0,1-1.425-.475c0-.237.237-.237.475-.237h.95c0,.237,0,.475.237.237.237,0,.475,0,.475.237Z" transform="translate(64.312 0)" fill="#fff"/>
    <path id="Path_103" data-name="Path 103" d="M207.127,109.054V104.78c0-1.662.237-3.324.237-4.986a1.8,1.8,0,0,0-.475-.95,1.813,1.813,0,0,1-.475-1.187,3.011,3.011,0,0,0,.237-1.425V94.571c-.237-.475-.475-.712-.475-.95s-.237-.475-.237-.95c0-.237.237-.475.237-.95a6.572,6.572,0,0,0-.712-3.086,5.308,5.308,0,0,1-.712-2.374,1.04,1.04,0,0,0,.237-.712,1.306,1.306,0,0,0-.712-1.187,2.155,2.155,0,0,1-.712-1.662v-.95a10.887,10.887,0,0,0-1.425-3.8c-.95-1.9-1.9-3.324-2.612-4.511a4.947,4.947,0,0,0-1.662-3.561c-1.187-1.187-1.9-2.137-2.374-2.612a25.237,25.237,0,0,0-2.137-2.612,18.119,18.119,0,0,0-2.612-1.9,9.112,9.112,0,0,0-2.612-2.612,34.726,34.726,0,0,0-3.086-2.137,2.747,2.747,0,0,0-1.662-1.187,8.433,8.433,0,0,1-2.137-.95,4.168,4.168,0,0,1-1.187-.95,3.375,3.375,0,0,0-1.425-.475,12.04,12.04,0,0,1-3.8-2.137,10.334,10.334,0,0,0-4.274-2.137,9.038,9.038,0,0,1-4.511-.95,12.655,12.655,0,0,0-4.511-.95,54.018,54.018,0,0,1-6.173-.475,30.259,30.259,0,0,0-6.648-.475H140.65a12.543,12.543,0,0,1-3.086-.237c-.95,0-1.9-.237-3.086-.237h-4.511a4.011,4.011,0,0,1-1.187-.475,10.284,10.284,0,0,1-1.187.237,5.9,5.9,0,0,1-2.137-.237,6.573,6.573,0,0,0-2.137-.237,17.97,17.97,0,0,0-3.561.237,20.423,20.423,0,0,1-3.8.237h-2.612a9.739,9.739,0,0,1-2.612-.237,2.14,2.14,0,0,1-1.187-.237,2.14,2.14,0,0,0-1.187-.237,4.131,4.131,0,0,0-3.324,2.137,6.923,6.923,0,0,0-1.425,3.561,3.521,3.521,0,0,0,.237,1.662,4.04,4.04,0,0,1,.237,1.662,4.628,4.628,0,0,0-.237,1.9,2,2,0,0,1-.475,1.662,8.077,8.077,0,0,1-.237,2.374,6.573,6.573,0,0,0-.237,2.137,6.932,6.932,0,0,0,.475,2.137,10.283,10.283,0,0,0-.237,1.187v1.425a3.52,3.52,0,0,0,.237,1.662c0,.475.237.95.237,1.425a3.011,3.011,0,0,1-.237,1.425,3.011,3.011,0,0,0-.237,1.425,2.581,2.581,0,0,0,.237,1.187v2.849a1.814,1.814,0,0,0,.475,1.187,2.007,2.007,0,0,1,.475,1.425,1.779,1.779,0,0,1-.237,1.187,2.14,2.14,0,0,0-.237,1.187,5.227,5.227,0,0,0,.237,1.9,11.572,11.572,0,0,0,.712,1.662q-.356,0-.712,1.425a6.643,6.643,0,0,0-.237,1.425,3.432,3.432,0,0,0,.475,1.662,4.178,4.178,0,0,0-.237,1.425,5.228,5.228,0,0,0,.237,1.9c0,.712.237,1.187.237,1.9a3.011,3.011,0,0,1-.237,1.425,3.012,3.012,0,0,0-.237,1.425,6.581,6.581,0,0,0,1.187,2.849,3.374,3.374,0,0,1-.475,1.425,4.473,4.473,0,0,0-.475,1.9,3.52,3.52,0,0,0,.237,1.662c.237.475.475.712.712,1.187,0,.237-.237.475-.475.712a3.8,3.8,0,0,0-.475,2.374v4.274c0,.95.237,1.662.712,1.9a3.011,3.011,0,0,1-.237,1.425,4.392,4.392,0,0,0,0,2.849,2.581,2.581,0,0,1,.237,1.187,1.838,1.838,0,0,1-.237.712,1.8,1.8,0,0,0-.237.95,6.932,6.932,0,0,0,.475,2.137c.475.475.475,1.187.475,2.137a2.14,2.14,0,0,1-.237,1.187,3.012,3.012,0,0,0-.237,1.425,4.635,4.635,0,0,0,.237,1.662v.95a31.519,31.519,0,0,0,3.8,2.849,9.5,9.5,0,0,1,2.374,2.849,26.377,26.377,0,0,1,1.662,3.8c.475,1.424.712,2.612.95,3.561a10.9,10.9,0,0,1,.237,2.374,8.076,8.076,0,0,1-.237,2.374,8.906,8.906,0,0,0-.237,2.374,6.932,6.932,0,0,0,.475,2.137,4.687,4.687,0,0,0-1.425,3.324v.475H114.3a8.907,8.907,0,0,0,2.374-.237h11.871a1.779,1.779,0,0,0,1.187-.237,14.37,14.37,0,0,0,3.561.475H137.8c.712,0,.95,0,1.187-.237a1.779,1.779,0,0,0,1.187.237h1.9v.237a36.236,36.236,0,0,1,7.123-.712c2.374,0,4.986-.237,7.6-.237a8.9,8.9,0,0,0,2.612.237c.95,0,1.662-.237,1.9-.712a4.83,4.83,0,0,0,1.187.237,4.473,4.473,0,0,0,1.9-.475,4.473,4.473,0,0,1,1.9-.475h.95a4.642,4.642,0,0,1,3.324-.95,5.024,5.024,0,0,0,3.324-.95,4.513,4.513,0,0,1,3.086-1.187,6.733,6.733,0,0,0,3.086-.95,3.262,3.262,0,0,1,1.9-1.187,3.262,3.262,0,0,0,1.9-1.187,1.577,1.577,0,0,0,1.187-.95,1.436,1.436,0,0,1,1.425-.712,4.259,4.259,0,0,0,1.662-1.187,3.827,3.827,0,0,1,1.662-.95,10.967,10.967,0,0,1,1.662-1.662c.712-.475,1.187-.95,1.9-1.424a10.325,10.325,0,0,0,1.662-1.425,4.591,4.591,0,0,0,1.187-2.137,28.453,28.453,0,0,1,2.612-2.849,9.035,9.035,0,0,0,2.137-3.086,1.814,1.814,0,0,1,.475-1.187l.95-.95a1.854,1.854,0,0,0,.95-.95,2.007,2.007,0,0,0,.475-1.425,12.528,12.528,0,0,1,1.9-5.223,14.363,14.363,0,0,0,1.9-4.986,1.8,1.8,0,0,0-.237-.95c0-.475-.237-.712-.237-1.187a1.813,1.813,0,0,1,.475-1.187c.237-.237.475-.475.475-.712v-.475c0-.237,0-.475.237-.475a.829.829,0,0,0,.237-.475v-1.425a3.375,3.375,0,0,1,.475-1.425,3.374,3.374,0,0,0,.475-1.424,4.04,4.04,0,0,0-.237-1.662C207.127,110.241,207.127,109.766,207.127,109.054ZM169.852,62.519a.233.233,0,0,0,.237-.237.735.735,0,0,1,.475-.237.233.233,0,0,1,.237.237v.237c-.237.237-.475.237-.95,0ZM154.42,65.843h.712a.511.511,0,0,1,.475.475v.237c0,.237-.237.237-.712.237h-.712C154.183,66.318,154.42,66.081,154.42,65.843ZM149.2,68.692c.237,0,.237.237.237.475V69.4H149.2c-.475,0-.712,0-.712-.237C148.722,68.692,148.722,68.692,149.2,68.692Zm-4.986,3.324c.237,0,.237.237.237.475-.475,0-.712,0-.712-.237Zm-6.173-9.022a.233.233,0,0,1,.237-.237c.475,0,.712,0,.712.237a1.04,1.04,0,0,1-.712.237l-.237-.237Zm.95,5.7a15.134,15.134,0,0,0,1.662-.475v.237a.233.233,0,0,0,.237.237.233.233,0,0,1,.237.237c0,.712-.475.95-1.187,1.187a9.338,9.338,0,0,1-1.424.475c-.237,0-.475-.237-.475-.712C138.038,69.167,138.275,68.692,138.988,68.692Zm-7.36-11.634c.237,0,.237,0,.475-.237h.95c.475,0,.712.237.712.475a.63.63,0,0,1-.712.712h-1.187l-.237-.237C131.39,57.059,131.39,57.059,131.628,57.059ZM128.3,69.642h.712a2.159,2.159,0,0,0,1.9.95c.475.237.95.237,1.187.475.475,0,.712.475.712.95-.237,0-.475.237-.95.237a3.64,3.64,0,0,1-2.612-1.187,7.215,7.215,0,0,1-1.662-1.187C127.829,69.879,128.066,69.642,128.3,69.642Zm-1.187,25.641h0l.237.475c-.237-.237-.237-.237-.237-.475Zm-4.748-32.764a1.779,1.779,0,0,1,1.187.237c.237.237.712.237,1.187.475v.95c0,.237-.237.237-.712.237a1.233,1.233,0,0,1-.95-.475c-.237-.475-.475-.475-.95-.475-.237,0-.237-.237-.237-.475ZM119.994,89.11c-.475,0-.712,0-.712-.237l.237-.237.237-.237A.872.872,0,0,1,119.994,89.11Zm-2.374-27.3c0-.237,0-.237.237-.237s.475.237.95.475a3.277,3.277,0,0,1,.95.712c0,.237-.475.475-1.187.475a6.493,6.493,0,0,1-1.187-.95A.829.829,0,0,1,117.62,61.807Zm-1.662,80.485c-.475,0-.712,0-.712-.237s0-.237.237-.237l.475.475Zm3.561-4.748c-.237,0-.475-.237-.95-.475a1.272,1.272,0,0,1-.712-.95v-.237h1.187c.237,0,.237,0,.475.237a.511.511,0,0,1,.475.475v.712A.735.735,0,0,1,119.519,137.544Zm2.137-8.785c-.712,0-1.425.237-1.9.237a2.155,2.155,0,0,0-1.662.712.872.872,0,0,0-.712-.237c-.237,0-.475-.237-.475-.712,0-.237.237-.475.95-.712s1.424-.237,2.137-.475,1.662-.237,2.374-.475a15.122,15.122,0,0,0,1.662-.475c.237.237.475.237.712.475.237,0,.475.237.475.712a4.967,4.967,0,0,1-1.425.95A3.273,3.273,0,0,0,121.656,128.759Zm1.425,17.094h-.712c-.237-.237-.237-.475-.237-1.187a.829.829,0,0,1,.475-.237.872.872,0,0,1,.712.237c.237.237.475.475.475.712C123.555,145.854,123.318,146.091,123.081,145.854Zm.237-5.7c-.237,0-.237,0-.237-.237a.511.511,0,0,1,.475-.475.735.735,0,0,1,.475-.237.233.233,0,0,1,.237.237.829.829,0,0,0,.475.237A2.545,2.545,0,0,1,123.318,140.156Zm1.187-5.7a2.14,2.14,0,0,0-1.187.237c0-.237-.237-.237-.475-.475-.237,0-.237-.237-.237-.712h.475a5.308,5.308,0,0,1,2.374.712C124.98,134.457,124.743,134.695,124.505,134.457Zm.475-60.067a5.9,5.9,0,0,1-1.9-.237c-.712-.237-1.187-.475-1.187-.712a.735.735,0,0,1,.237-.475h2.374a2,2,0,0,1,1.662.95A1.813,1.813,0,0,1,124.98,74.39Zm5.223,70.039a7.024,7.024,0,0,0-2.374.475,1.427,1.427,0,0,0-.95-.237c-.237,0-.475,0-.475-.475a3.789,3.789,0,0,1,2.137-1.662,12.252,12.252,0,0,1,2.612-.475.735.735,0,0,0,.475.237.233.233,0,0,1,.237.237C131.628,143.717,131.153,144.429,130.2,144.429Zm3.8-10.446h0l-.237.237c-.237.237-.475.237-1.187.237a4.473,4.473,0,0,1-1.9-.475l-1.425-.712a6.04,6.04,0,0,0,1.662-.475,4.04,4.04,0,0,1,1.662-.237,1.3,1.3,0,0,1,1.425.95v.475Zm.237-66.477a2.565,2.565,0,0,1-1.662-.712,1.717,1.717,0,0,1-.95-1.425c0-.237.237-.237.475-.237a1.779,1.779,0,0,1,1.187.237c.475.237.712.475,1.187.712,0,.237,0,.237.237.237s.237,0,.237.237C135.189,67.03,134.952,67.505,134.239,67.505Zm4.986,77.4a1.814,1.814,0,0,1-1.187.475h-1.9c-.237-.237-.237-.475-.237-1.187.475-.237.712-.237,1.187-.475a1.234,1.234,0,0,0,.95-.475,1.779,1.779,0,0,0,1.187.237,1.233,1.233,0,0,1,.95.475A1.854,1.854,0,0,1,139.225,144.9Zm13.3,0a1.8,1.8,0,0,1-.95.237,3.374,3.374,0,0,1-1.424-.475c-.475-.237-.95-.475-.95-.712a.233.233,0,0,1,.237-.237h.475c.237,0,.475,0,.475-.237a1.779,1.779,0,0,0,1.187.237c.712,0,.95.237.95.712Zm7.6-.237a4.011,4.011,0,0,1-1.187-.475,1.306,1.306,0,0,1-.712-1.187c0-.237.237-.475.712-.475a1.814,1.814,0,0,1,1.187.475c.237.237.712.475.95.712C161.305,144.429,160.83,144.667,160.118,144.667Zm11.871-30.39a3.681,3.681,0,0,1-.475,2.849,8.433,8.433,0,0,0-.95,2.137,3.009,3.009,0,0,1-.95,2.137A28.455,28.455,0,0,1,167,124.248a6.818,6.818,0,0,0-1.9,3.086,25.952,25.952,0,0,1-3.561,1.9,12.407,12.407,0,0,0-3.561,1.662,12.028,12.028,0,0,1-3.561,1.662,22.228,22.228,0,0,0-3.8.95,1.306,1.306,0,0,1-1.187.712,1.427,1.427,0,0,1-.95-.237,10.282,10.282,0,0,0-1.187-.237,2.14,2.14,0,0,0-1.187.237,10.283,10.283,0,0,1-1.187.237H143.5a4.082,4.082,0,0,0-1.9.237,4.636,4.636,0,0,0-1.662-.237,2.052,2.052,0,0,1-1.425-.712,4.011,4.011,0,0,1-.712-2.374A2.493,2.493,0,0,0,136.614,129a5.227,5.227,0,0,1,.237-1.9,5.228,5.228,0,0,0,.237-1.9v-3.324a3.151,3.151,0,0,1,.712-2.374,2.9,2.9,0,0,0,.712-2.137,8.9,8.9,0,0,0-.237-2.612,8.077,8.077,0,0,1-.237-2.374,4.635,4.635,0,0,1,.237-1.662,4.04,4.04,0,0,0,.237-1.662,3.52,3.52,0,0,0-.237-1.662,4.041,4.041,0,0,1-.237-1.662,5.228,5.228,0,0,1,.237-1.9c0-.712.237-1.425.237-2.137a25.8,25.8,0,0,0-.237-4.274c0-1.425-.237-2.849-.237-4.274a2.767,2.767,0,0,1,.475-1.662,1.814,1.814,0,0,0,.475-1.187V87.686a2.9,2.9,0,0,0-.712-2.137,7.311,7.311,0,0,0,.712-3.086,5.063,5.063,0,0,0-.712-2.849A2.92,2.92,0,0,1,139.937,77a7.738,7.738,0,0,1,2.374-.712,8.436,8.436,0,0,1,2.374.475,8.435,8.435,0,0,0,2.374.475,7.339,7.339,0,0,0,1.9-.475,1.848,1.848,0,0,1,1.662.712,1.436,1.436,0,0,0,1.425.712,11.5,11.5,0,0,0,4.274.712,12.335,12.335,0,0,1,1.187.712,25.9,25.9,0,0,0,2.612,1.425c1.187.712,2.137,1.425,3.561,2.137a33.977,33.977,0,0,1,3.561,2.612,4.967,4.967,0,0,0,.95,1.425c.475.475.712.95,1.187,1.425a1.854,1.854,0,0,1,.95.95,2.581,2.581,0,0,1,.237,1.187c0,.475.237.95.237,1.425s.475.712.712.95v.475a4.772,4.772,0,0,0,.95,3.086,5.817,5.817,0,0,1,.95,2.849,1.427,1.427,0,0,1-.237.95c0,.475-.237.712-.237.95a8.536,8.536,0,0,0,.475,2.612,5.112,5.112,0,0,1,.475,2.612,3.83,3.83,0,0,1-.712,2.137v.475c0,.237,0,.237-.237.237a1.427,1.427,0,0,0,.237.95,2.14,2.14,0,0,1,.237,1.187.872.872,0,0,1-.237.712C172.227,112.14,171.752,113.09,171.989,114.277Zm1.662,28.016h0a.735.735,0,0,1-.475.237.63.63,0,0,1-.712-.712h.95c.237,0,.237.237.237.475Zm2.374-5.223h-.95c0-.237-.237-.237-.475-.475-.237,0-.237-.237-.237-.475h1.187a1.1,1.1,0,0,1,1.187.712C176.5,136.832,176.263,137.069,176.025,137.069Zm3.8-57.93a3.829,3.829,0,0,1-2.137.712c-.712,0-1.662.237-2.374.237h-.475v-.237c0-.237,0-.475.237-.475h.237a3.011,3.011,0,0,1,1.425-.237,1.813,1.813,0,0,0,1.187-.475.829.829,0,0,0,.475.237h.95c.237,0,.237,0,.237.237h.237Zm3.8,1.187c.712,0,1.425.237,1.425.95v.237a.233.233,0,0,0,.237.237c0,.237-.237.475-.712.475h-1.187c-.475,0-.712-.475-.712-1.187C182.673,80.563,182.91,80.326,183.623,80.326Zm-.95,6.173h1.187c0,.237,0,.237.237.237h.475c.237,0,.237,0,.237.237a.233.233,0,0,0,.237.237v.237a.511.511,0,0,1-.475.475c-.237,0-.475.237-.712.237a1.813,1.813,0,0,1-1.187-.475,3.278,3.278,0,0,0-.95-.712C181.961,86.5,182.2,86.5,182.673,86.5ZM182.2,103.83c0-.475.237-.712.712-.95a4.011,4.011,0,0,1,1.187-.475.872.872,0,0,1,.712.237l.475.475c0,.237-.237.475-.475.712-.237,0-.475.237-.712.475h-1.424A.511.511,0,0,1,182.2,103.83Zm.712,6.41c-.237-.237-.237-.475-.237-.95,0-.237.237-.475.712-.475h1.425v.237l.237.237c0,.475-.237.712-.712.95Zm2.849,14.245h-.712c-.237,0-.475-.237-.475-.712a.511.511,0,0,1,.475-.475c.475,0,.475-.237.475-.237.237,0,.237,0,.475.237,0,.237.237.237.475.475C186.472,124.486,186.234,124.486,185.759,124.486Zm3.324-16.619h-.95c0-.475.237-.712.95-.712a.872.872,0,0,1,.712.237C189.8,107.629,189.558,107.866,189.083,107.866Zm7.6,8.547a1.8,1.8,0,0,1-.95-.237.758.758,0,0,1-.712-.712c.237-.237.475-.237.95-.237.95,0,1.662.237,1.9.712A1.4,1.4,0,0,1,196.681,116.414Z" transform="translate(138.244 0.687)" fill="#fff"/>
  </g>
</svg>
