<svg height="80" viewBox="0 0 80 80" width="80" xmlns="http://www.w3.org/2000/svg"><g fill="none" fill-rule="evenodd" transform="translate(7 2)"><path d="m48 14h2v2h-2zm2 6h2v2h-2zm-10-4v-2h2v8h4v2h-6v-2h-2v-6z" fill="#f0f0f0"/><path d="m42 14h2v2h-2z" fill="#fff"/><path d="m30 18v2h2v2h-4v-8h4v2h2v-8h2v-2h2v-2h8v2h4v2h2v4h-4v4h-2v-2h-2v-2h-4v2h-2v8h2v4h-6v-2h-2v-2h2v-2h-2v-2zm20 8v2h-6v-2h4v-2h2v-2h2v4zm-4-6h2v4h-2z" fill="#ffb080"/><path d="m60 32h4v2h-4zm0 4h4v2h-4zm0 4h4v2h-4zm-4-8v4h-2v-4zm-2 36h4v2h-8v-2h-2v-2h6zm-36 2h2v2h-10v-2h2v-2h6zm4-32h2v2h-2zm2-2h2v2h-2zm26-22h2v6h-2zm-6 4h2v4h-2z" fill="#949393"/><g fill="#d07048" transform="translate(30 2)"><path d="m18 20h2v2h-2z"/><path d="m14 26h4v2h-10v-2h-2v-2h4v2h2v-2h2z"/><path d="m14 12h2v2h-2z"/><path d="m16 14h2v2h-2z"/><path d="m6 2v-2h10v2h-8v2h-2v2h-2v8h-2v-2h-2v-6h2v-4z"/><path d="m16 2h4v2h-4z"/></g><path d="m30 18h2v2h-2z" fill="#d07048"/><g fill="#555454" transform="translate(6 32)"><path d="m52 0h2v2h-2z"/><path d="m56 2h2v2h-2z"/><path d="m52 4h2v2h-2z"/><path d="m56 6h2v2h-2z"/><path d="m52 8h2v2h-2z"/><path d="m54 38h2v2h-14v-2h-2v-2h-2v-2h2v-2h6v2h-4v2h2v2h8v-2h2z"/><path d="m48 34h2v2h-2z"/><path d="m18 40v2h-18v-2h2v-2h2v2h10v-2h6v2zm-14-4h2v2h-2z"/><path d="m14 8v-4h4v2h-2v2z"/><path d="m20 10v2h-4v-4h2v-2h2v-2h-2v-2h2v-2h2v2h2v6h-2v2z"/></g><path d="m54 36h2v2h-2z" fill="#555454"/><path d="m42 20h2v2h-2z" fill="#404040"/><g fill="#804020"><path d="m32 20h2v2h-2z"/><path d="m30 22h2v2h-2z"/><path d="m32 24h2v2h-2z"/><path d="m34 26h2v2h-2z"/></g><path d="m40 28v-4h8v2h-6v2z" fill="#502810"/><g fill="#81623e" transform="translate(38 12)"><path d="m2 0h4v2h-4z"/><path d="m10 0h4v2h-4z"/><path d="m0 2h2v2h-2z"/></g><g fill="#373636" transform="translate(2 32)"><path d="m52 8h2v2h-2z"/><path d="m56 6h4v2h-4z"/><path d="m56 2h4v2h-4z"/><path d="m50 32h4v2h-4z"/><path d="m54 34h4v2h-4z"/><path d="m58 36h2v2h-2z"/><path d="m36 40v-6h6v2h2v2h2v2z"/><path d="m48 30h2v2h-2z"/><path d="m12 36h-4v2h-2v2h-2v2h-4v-4h2v-2h4v-2h6z"/><path d="m22 40h2v2h-2z"/><path d="m20 8v4h-2v-2h-2v-4h2v2z"/><path d="m26 8h2v2h-2z"/><path d="m30 2v6h-2v-6z"/><path d="m26 0h2v2h-2z"/></g><path d="m26 42h4v2h-4zm4-2h2v2h-2zm2-6h2v6h-2zm-6-4h6v4h-2v-2h-4v2h-2v-6h2zm-4-4h2v2h-2zm8-2h2v2h-2zm2 2h2v2h-2zm2 2h4v2h-4zm14 2v-2h2v4h-12v-2zm-4-12v2h-2v-4h4v2zm4 2h-2v-2h2v-2h2v6h-2zm-4 20v8h-14v-2h12v-6zm-26 2h2v2h-2zm4 10v-6h-2v-2h6v2h-2v2h6v2h-6v2zm24 10h4v2h-4zm-6 2h6v2h-8v-10h2zm-2 8h24v-4h2v6h-28v-8h2zm18-8h4v2h-4zm-44 0h2v2h-6v-2h2v-2h2zm-12 12v-6h2v4h24v-4h-8v-2h10v-4h2v6h-2v6zm12-16h2v2h-2zm2-2h2v2h-2zm2-2h2v2h-2zm2-2h2v2h-2zm2-2h2v2h-2zm12 2h6v2h-6zm-2 2h2v8h-2zm-28 12h2v2h-2zm2-2h4v2h-4zm10 0h4v2h-4zm46 0h2v2h-2zm-14-64h4v2h-4zm0 0h-10v-2h10zm-14 0h4v2h-4zm-2 6v-4h2v4zm0 0v6h-2v-6zm0 16h-10v-2h6v-8h2v8h2zm-14 4v10h-2v-10zm0-2h2v2h-2zm2-2h2v2h-2zm34 2v-18h2v18zm0-22v4h-2v-4zm-2 22h2v2h-2zm6 6h-2v-2h10v2h-6v10h6v2h-12v-2h-4v-2h4v-6h-2v-2h4v6h2zm-2 10h2v-2h-2zm10-10h2v10h-2zm-48 6h2v4h-2zm2-2h2v2h-2zm2-2h4v2h-4zm24 14h2v2h-2zm2 2h2v2h-2zm2 2h2v2h-2zm0-12h-4v-2h4zm6 22h2v2h-4v-2h-2v-2h2v-2h2zm-2-8v4h-2v-4z" fill="#000"/><path d="m34 40v-4h2v4zm4 4h-6v-2h6zm-20 20h4v2h-4zm6-12v4h-4v-2h2v-2zm-4 6h6v2h-6zm2 4h8v2h-8zm16-28h2v2h-2zm12 4h2v2h-2zm-10 2h2v2h-2zm2 12h2v2h-2zm2 10h2v2h-2zm2-8h4v2h-4zm-6 4h6v2h-6zm-16-12h4v2h-4zm10 2h6v2h-6zm-2 4h6v2h-6zm12-18h6v2h-6zm-12-4h6v2h-6zm-14-2h2v2h-2zm2 2h2v2h-2zm4-4h6v2h-6z" fill="#81613e"/><path d="m34 34h4v2h-4zm-14-10h4v2h-4zm20 8h4v2h-4zm-12-4h6v2h-6zm-12 0h2v2h-2zm2 2h2v2h-2zm2 2h2v2h-2zm30 2h2v2h-2zm-2 2h2v2h-2zm-8 2h4v2h-4zm-2 4h4v2h-4zm-6-2h4v2h-4zm-2 8h4v2h-4zm-4 8h4v2h-4zm-4 4h4v2h-4zm-6-2h4v2h-4zm2 8h4v2h-4zm-6-4h6v2h-6zm12-10h6v2h-6zm16-4h4v2h-4zm-4 2h4v2h-4zm8 2h4v2h-4zm-4 4h4v2h-4zm0 6h4v2h-4zm6-4h6v2h-6zm-20-14h6v2h-6z" fill="#ba9b6f"/><path d="m16 30h2v2h-2zm2 2h2v2h-2zm2-4h4v6h-2v-4h-2zm-2-2h2v2h-2zm12 0h2v2h-2zm6 10h2v2h-2zm2 2h2v2h-2zm8-2h2v2h-2zm4 0h2v2h-2zm-2 2h2v2h-2zm-12 2h2v2h-2zm-6 2h2v2h-2zm-2 4h2v2h-2zm-2 8v4h-4v-2h2v-2zm4 4v4h-4v-2h2v-2zm-10 4h-4v-2h6v4h-2zm2 2h2v2h-2zm6-14h4v4h-2v-2h-2zm12 0h2v2h-2zm-2 2h2v2h-2zm2 2h4v2h-4zm4 2h4v2h-4zm-4 4h4v2h-4zm-4-16h4v2h-4zm0-12h4v2h-4zm4 2h4v2h-4zm4-2h4v2h-4zm-20-8h6v2h-6z" fill="#807a12"/><path d="m40 52h2v2h-2zm-14 6h2v2h-2zm-8 4h2v2h-2zm10 2v4h-6v-2h2v-2zm-14-4h2v2h-2zm0 4h4v2h-4zm4-8h4v2h-4zm8-2h6v2h-6zm12 0h2v2h-2zm6 0h2v2h-2zm4 2h2v2h-2zm-4 4h6v2h-6zm-2-10h4v2h-4zm-10 0h4v2h-4zm-8 0h4v2h-4zm12-12h2v2h-2zm2 2h2v2h-2zm-12-12h2v2h-2zm14 16h2v2h-2zm8-12h2v2h-2zm-10 4h8v2h-8zm-6 8h4v2h-4zm0-12h4v2h-4zm-12-6h2v2h-2zm-2 10v2h-2v-6h2v2h2v2z" fill="#5c5705"/></g></svg>